/* XPM */
static char *rsz_1images_removebg_preview_11717178469[] = {
/* columns rows colors chars-per-pixel */
"64 64 223 2 ",
"   c None",
".  c #6E371D",
"X  c #5C3E33",
"o  c #5E3929",
"O  c #6D3B25",
"+  c #693928",
"@  c #733E26",
"#  c #733E29",
"$  c #6B422A",
"%  c #764125",
"&  c #7C4324",
"*  c #74432D",
"=  c #7C432A",
"-  c #7B4A2C",
";  c #6A4434",
":  c #744631",
">  c #764B36",
",  c #524E50",
"<  c #755A4D",
"1  c #785545",
"2  c #775D56",
"3  c #6E4F43",
"4  c #7B645B",
"5  c #7A665A",
"6  c #7C6B63",
"7  c #7D7877",
"8  c #834B2B",
"9  c #8A4D2C",
"0  c #834726",
"q  c #8C522D",
"w  c #84512B",
"e  c #93542D",
"r  c #9A5A2E",
"t  c #945727",
"y  c #844C32",
"u  c #8A4E32",
"i  c #855133",
"p  c #8B5334",
"a  c #85553C",
"s  c #8C5539",
"d  c #88593B",
"f  c #935533",
"g  c #945A34",
"h  c #9C5C34",
"j  c #9A5C3A",
"k  c #965B3A",
"l  c #934F26",
"z  c #A15D34",
"x  c #A25D38",
"c  c #9C6B2C",
"v  c #9F6135",
"b  c #9D613A",
"n  c #A36235",
"m  c #A3643A",
"M  c #A8673A",
"N  c #B26A3B",
"B  c #A37432",
"V  c #885C46",
"C  c #966649",
"Z  c #8B6A5B",
"A  c #836D5E",
"S  c #98775E",
"D  c #8E6F5B",
"F  c #A86841",
"G  c #A4745B",
"H  c #866C62",
"J  c #8A6B63",
"K  c #82736C",
"L  c #897265",
"P  c #967969",
"I  c #897A75",
"U  c #827D7C",
"Y  c #8B7B7A",
"T  c #847873",
"R  c #967D77",
"E  c #A77964",
"W  c #B28A31",
"Q  c #CB8824",
"!  c #D7962C",
"~  c #DA9A36",
"^  c #D78E30",
"/  c #E49E37",
"(  c #E0992D",
")  c #DBA537",
"_  c #DDB638",
"`  c #E2AA3A",
"'  c #EBA738",
"]  c #F2A63C",
"[  c #E8B63A",
"{  c #F4B736",
"}  c #EAC43D",
"|  c #F1C33D",
" . c #AD8840",
".. c #88827D",
"X. c #9B847A",
"o. c #A48677",
"O. c #A68D6A",
"+. c #C89F4B",
"@. c #D3A951",
"#. c #D2B75D",
"$. c #CFAC48",
"%. c #E5AC41",
"&. c #E5A541",
"*. c #EBB442",
"=. c #EEBC42",
"-. c #E2BA47",
";. c #F6BC43",
":. c #E1B456",
">. c #D7B565",
",. c #E1B669",
"<. c #ECC244",
"1. c #EDCC46",
"2. c #ECCC4C",
"3. c #E2C44E",
"4. c #F2CC45",
"5. c #F4C848",
"6. c #EED549",
"7. c #F3D44B",
"8. c #FBDB4E",
"9. c #F6D54A",
"0. c #EBCB57",
"q. c #F3CE55",
"w. c #EDD654",
"e. c #F9D452",
"r. c #F4DB53",
"t. c #F4DB5B",
"y. c #F8D857",
"u. c #F4E455",
"i. c #F5E25C",
"p. c #FBE659",
"a. c #E8CE64",
"s. c #EBD565",
"d. c #F3DD6C",
"f. c #EBD475",
"g. c #FAE964",
"h. c #F6E778",
"j. c #F4EE71",
"k. c #737A80",
"l. c #7D8187",
"z. c #858383",
"x. c #8A8582",
"c. c #868A8D",
"v. c #8C8C8D",
"b. c #878786",
"n. c #928A85",
"m. c #918B8B",
"M. c #8C8D92",
"N. c #8D9192",
"B. c #959494",
"V. c #9A9A9D",
"C. c #948F91",
"Z. c #A78D83",
"A. c #A99894",
"S. c #B4978C",
"D. c #B5A299",
"F. c #A0A29D",
"G. c #9A9BA3",
"H. c #9DA2A4",
"J. c #A9A9AA",
"K. c #B7A9AA",
"L. c #B2B3B4",
"P. c #B5B4BB",
"I. c #BBBABB",
"U. c #B7B4B5",
"Y. c #B4B1B0",
"T. c #DCBC86",
"R. c #CFB698",
"E. c #CBB2A6",
"W. c #C3BABC",
"Q. c #C6B6B5",
"!. c #D5C882",
"~. c #ECCA8B",
"^. c #EED787",
"/. c #EBD69C",
"(. c #F6EB83",
"). c #F0E992",
"_. c #D9C4B6",
"`. c #C1C3BF",
"'. c #E3DEB6",
"]. c #F2DDB3",
"[. c #EADAA8",
"{. c #F3E3B2",
"}. c #BDBCC2",
"|. c #BEBAC9",
" X c #C1BEC2",
".X c #D6B5C1",
"XX c #BFC2C6",
"oX c #C4C2C4",
"OX c #C5C4CA",
"+X c #CAC5CA",
"@X c #CBC9CB",
"#X c #C8C8C9",
"$X c #DED8CB",
"%X c #CACDD3",
"&X c #D1CFD2",
"*X c #CED2D4",
"=X c #D3D4D6",
"-X c #DBDADC",
";X c #D5D6D9",
":X c #E5D8CB",
">X c #E1D4D1",
",X c #F5E7CC",
"<X c #E8E3DA",
"1X c #F6E7DB",
"2X c #F6F2DC",
"3X c #DBDEE1",
"4X c #D5DBE5",
"5X c #E3DFE3",
"6X c #DCE4E7",
"7X c #E5E5E5",
"8X c #EAE6E4",
"9X c #EAE9E4",
"0X c #E5E6EA",
"qX c #EAEAEB",
"wX c #E7E9E9",
"eX c #F2EDEC",
"rX c #F3ECE5",
"tX c #F4F2ED",
"yX c #F7F2E6",
"uX c #E9EDF3",
"iX c #F2F3F3",
"pX c #F9F7F8",
"aX c #EFF2F5",
/* pixels */
"                                                                                                                                ",
"                                                                                                                                ",
"                                                                                                                                ",
"                                                                                                                                ",
"                                                                                                                                ",
"                                                                                                                                ",
"                                                                                                                                ",
"                                                                                                                                ",
"                                                      0XqXqX0X8X8XwXwX  7X7X7X7XwX=X                                            ",
"                                                      8X-X-X3X7XwXwXwX8X7X7X0X7XqX@XV.                                          ",
"                                                    8X0XV.Y.@X@X%X*X;X-X7X7XqX8X8X8X7XwXqX8X                                    ",
"                                                    qX%Xz.I R A.K.W.oX#X@X%X=X;X-X5X0X0X0XwX7X7X7XwX                            ",
"                                                  7XqXJ.Y : + + : 1 Z R S.K.W.#X#X+X%X&X=X-X-X8X8X7X0XI.                        ",
"                                                  qX3XM.J # = y 9 & @ @ @ * > Z o.A.K.W.+XOX+X+X=X0X7XB.b.                      ",
"                                                7XqXI.z.1 # # y f q p p u y = . # # - 1 Z R D.K.;XaXoX..v.v.                    ",
"                                                0X7XB.I : # # 8 v v g g s f p p p u 9 9 0 @ O J <XwXH.7 7 v.                    ",
"                                                qX#Xb.6 $ % O 9 n n m x h b j g f p p i p e 9 D.tX&Xc.5 X x.                    ",
"                                              7XwXF...> % @ @ q n h h h h z n n v h r v g q V :XiXY...1 O H v.                  ",
"                                              9X=Xc.L $ = = % j n n z h h r f h v e v n n t o.aX-XB.7 * y 2 M.                  ",
"                                            1XqXJ.U 2 $ & # p j j h F m m m m h h h g t v v _.aXI.x.< 8 9 < m.                  ",
"                                        (.(.^.).!.O.$ + . 0 v c c q q j z h n m m F m m k S 1X0XG.T > f 0 < v.                  ",
"                                    h.d.r.2.<.} t.j.$.W W c @.s.q.0.+.B t r n v b k r m k R.tX#Xv.4 y s = 2 v.                  ",
"                                    s.8.9.9.9.5.6.u.u.p.g.0.t.u.6.7.2.q.@.r h n m b n z C :XeXJ.U > i u * K v.                  ",
"                                    3.4.9.9.7.r.u.u.t.} 1.i.g.w.r.7.<.<.j.>.w j h F N r S.tX-XN.4 * y i : n.                    ",
"                                    d.t.| { ' 2.i.2.7.5.[ 2.g.t.<.y.e.y.w.j.W . 8 0 l p _.iXL...1 % p $ H m.                    ",
"                                  2Xf.q.=.] ' =.7.r.y.r.y.t.q.) ! { *.=.5.[ T.Q.o.S i S rX6XB.K o * * 4 M.                      ",
"                              {.).h.2.2.<.{ =.4.8.4.<.{ [ ) ! Q ~ *./ ~ ! W /.yXaXqX>X$XaX#Xb.5 X < K v.                        ",
"                            [.d.6.6.} p.8.[ <.u.p.5.' ] ' / ` ! =.*.] ~ ^ ) u.h.'.<X9XwXwXH.z.x.x.b.v.                          ",
"                          tX!.1.y.r.r.2.<.` %.1.5.<.*.*.%.` ~ Q %.%.~ Q ) 7.1.t.w.$XaXiX-Xv.v.v.                                ",
"                      iXqXaX,X/.f.w.4.<._ [ <.8.9.| ;.*.&.` ^ ! &./ ~ Q =.r.e.a./.9XaXoXv.                                      ",
"                      @X=X;XwXtX1X,X~.,.$.0.y.r.9.{ ] ] / ~ ! ! ` ~ %.-.*.' @.'.pXwXJ.l.b.                                      ",
"                      }.}.oXoX=XaXpXpXpX,X/.^.0.;.[ ' ` *.[ <.5.=.-.q.g.-.T.rXpX=Xv.7 b.v.                                      ",
"                      }. XA.D. X@X*X*X4X5XrXrX2X].~.:.) e.r.8.y.y.8.7.a./.yXeXI.b.c.n.U c.                                      ",
"                      |.%XJ + V P D.Q.|.}.`.%X4XqXtX1X{.~.a.2.<.=._ #.,XpX8XH.k.c.n.3 5 C.                                      ",
"                       X.XZ.0 j i 8 V Q.OXOXXX}.oX@X-XuXiX2X{.~.>.T.rXpX=XM.c.C.6 ; + H m.                                      ",
"                       X XA.8 M N F C E.OXV.L.OX}.OXoXoX%X4XuXpXyXtXiX Xx.c.x.< + i a Z v.                                      ",
"                      OX+XK.8 e r n b E.%X, , XXL...B.W. XOX`.@X3XaXL.U n.I : + i q w L v.                                      ",
"                       X XQ.a x j h t S.aXk.7 #XY.2 $ d P A.W.}.oX@Xb...6 X y u i d q L N.                                      ",
"                      oX X XV z m M x E :XL.P.%XL.A w n f @ ; Z.#XP.c.7 + > 0 9 q p & A v.                                      ",
"                         X XZ z x h x j d X.Y.@XI.6 - v x x 9 G +XP.c.T # w f p d 8 w L v.                                      ",
"                        }.#XP l m m m n v w - d Z > q m v n j O.+XP.c.T > f p i y s p H v.                                      ",
"                        }.+XX.q r k e h v M M b e g v v n n v E +XL.c.I > s i y s s i A v.                                      ",
"                        }.OXA.a N n n h j f j m M m m v x n r E  XL.c.Y : i u s p q - A v.                                      ",
"                        oXOXK.> g x M M n n b b v h b v n n h G  XP.c.Y : p i i i d > 5                                         ",
"                                  a i w b n n M m h h v m x h G  X XM.Y : u - u a >                                             ",
"                                        a V k v M n n h e r r G  X}.M.Y # = f > $                                               ",
"                                                d g h M M x e C .X}.v.Y ; a >                                                   ",
"                                                      i g b M G I.}.v.Y ; o                                                     ",
"                                                            % d W.}.v...                                                        ",
"                                                                W.}.v.                                                          ",
"                                                                                                                                ",
"                                                                                                                                ",
"                                                                                                                                ",
"                                                                                                                                ",
"                                                                                                                                ",
"                                                                                                                                ",
"                                                                                                                                ",
"                                                                                                                                ",
"                                                                                                                                ",
"                                                                                                                                ",
"                                                                                                                                ",
"                                                                                                                                ",
"                                                                                                                                ",
"                                                                                                                                "
};
