/* XPM */
static char *rsz_download_1_removebg_preview1717092550[] = {
/* columns rows colors chars-per-pixel */
"64 64 239 2 ",
"   c #010100",
".  c #0A0202",
"X  c #020A02",
"o  c #040509",
"O  c #0B060A",
"+  c #050B0A",
"@  c #0B0A0A",
"#  c #0B0B04",
"$  c #110302",
"%  c #140C0D",
"&  c #170A07",
"*  c #041308",
"=  c #161109",
"-  c #0D1412",
";  c #141B14",
":  c #181716",
">  c #110F12",
",  c #231D1C",
"<  c #291917",
"1  c #25110E",
"2  c #19261D",
"3  c #132A1B",
"4  c #26231B",
"5  c #35271E",
"6  c #181D20",
"7  c #1D2A22",
"8  c #1A3828",
"9  c #292A26",
"0  c #272926",
"q  c #332B2C",
"w  c #372B29",
"e  c #27362B",
"r  c #373327",
"t  c #372E31",
"y  c #2D3C33",
"u  c #2A3931",
"i  c #353534",
"p  c #3C3D3A",
"a  c #383A35",
"s  c #42392B",
"d  c #453B38",
"f  c #503E32",
"g  c #1E402F",
"h  c #2D4A3C",
"j  c #294436",
"k  c #34453A",
"l  c #3B433C",
"z  c #324A3E",
"x  c #364136",
"c  c #304936",
"v  c #46443B",
"b  c #514539",
"n  c #473E41",
"m  c #344D41",
"M  c #3B4B43",
"N  c #3B4642",
"B  c #345343",
"V  c #3B5344",
"C  c #3C554A",
"Z  c #3D5A4C",
"A  c #335A45",
"S  c #2F4F40",
"D  c #39614D",
"F  c #3F6F56",
"G  c #4C4344",
"H  c #424A43",
"J  c #4A4B46",
"K  c #434E49",
"L  c #4D4E4A",
"P  c #464444",
"I  c #534443",
"U  c #544C4C",
"Y  c #594C45",
"T  c #43544B",
"R  c #425A4D",
"E  c #4A574B",
"W  c #5C534C",
"Q  c #58554A",
"!  c #4C5351",
"~  c #455D52",
"^  c #4B5B52",
"/  c #545C55",
"(  c #5C5B55",
")  c #585554",
"_  c #584C50",
"`  c #64554A",
"'  c #635452",
"]  c #645C53",
"[  c #675A5A",
"{  c #735E59",
"}  c #624E47",
"|  c #456355",
" . c #4B6454",
".. c #446B56",
"X. c #496C57",
"o. c #456E5A",
"O. c #4A6C5A",
"+. c #476158",
"@. c #55645A",
"#. c #5B625C",
"$. c #526C5C",
"%. c #596659",
"&. c #44735C",
"*. c #4B725C",
"=. c #51725E",
"-. c #40634D",
";. c #696459",
":. c #73655D",
">. c #76685C",
",. c #5C6B61",
"<. c #556A62",
"1. c #4D7461",
"2. c #4D7B64",
"3. c #537563",
"4. c #5B7464",
"5. c #547A64",
"6. c #557C69",
"7. c #5C7C6B",
"8. c #5A7A67",
"9. c #4D6662",
"0. c #6C6565",
"q. c #6A6B67",
"w. c #646964",
"e. c #766B67",
"r. c #63756A",
"t. c #6B746C",
"y. c #627C6C",
"u. c #6A7A6E",
"i. c #647265",
"p. c #7B736A",
"a. c #787269",
"s. c #6B7A71",
"d. c #7B7C79",
"f. c #787673",
"g. c #675E63",
"h. c #816D68",
"j. c #83746C",
"k. c #867469",
"l. c #827575",
"z. c #877A76",
"x. c #967F77",
"c. c #55826B",
"v. c #5C826D",
"b. c #5D8471",
"n. c #5D8974",
"m. c #61836E",
"M. c #628473",
"N. c #6B8474",
"B. c #638A75",
"V. c #6B8976",
"C. c #658C79",
"Z. c #6B8C7A",
"A. c #6C8678",
"S. c #74857A",
"D. c #738B7C",
"F. c #798479",
"G. c #6A917D",
"H. c #65907C",
"J. c #72917F",
"K. c #89847B",
"L. c #93847D",
"P. c #968779",
"I. c #798C81",
"U. c #6D9580",
"Y. c #6F9B82",
"T. c #739382",
"R. c #7B9C8A",
"E. c #789786",
"W. c #7DA18C",
"Q. c #7DA491",
"!. c #8A8785",
"~. c #978A85",
"^. c #87958C",
"/. c #99928A",
"(. c #979996",
"). c #8E9792",
"_. c #A5988C",
"`. c #A99B95",
"'. c #AA968D",
"]. c #81A38F",
"[. c #83A592",
"{. c #89A997",
"}. c #9AA79D",
"|. c #8AB39B",
" X c #ABA499",
".X c #B3A39B",
"XX c #B8A79B",
"oX c #97B4A4",
"OX c #99AFA2",
"+X c #A9A5A2",
"@X c #B5ACA3",
"#X c #BCADA4",
"$X c #BFADAB",
"%X c #A6B7AB",
"&X c #BCB2AA",
"*X c #BAB2A6",
"=X c #BCB6B7",
"-X c #B9AEB2",
";X c #CABAAE",
":X c #C5B6AB",
">X c #CBBCB3",
",X c #C5B8B3",
"<X c #D2BEB7",
"1X c #B8C2BA",
"2X c #A2C7B5",
"3X c #9FC4B2",
"4X c #CDC3B8",
"5X c #D3C5BC",
"6X c #D4C9BD",
"7X c #D9CABD",
"8X c #D6C4B9",
"9X c #D3D0BF",
"0X c #E0CDBF",
"qX c #B9CFC3",
"wX c #BBD5CA",
"eX c #D4CBC2",
"rX c #DBCDC3",
"tX c #D3CAC8",
"yX c #C8D7CB",
"uX c #DDD2C4",
"iX c #DCD5C8",
"pX c #D2D9D5",
"aX c #E1CEC4",
"sX c #E4D5CB",
"dX c #EBDACD",
"fX c #E5D6CA",
"gX c #E5DBD1",
"hX c #EBDDD2",
"jX c #E9D8D3",
"kX c #F0DBDA",
"lX c #ECE2D7",
"zX c #F2E7DC",
"xX c #F8EBE6",
"cX c #FDF3EC",
"vX c #FEF5F3",
"bX c #FFFCF4",
"nX c #FCFEFC",
"mX c #F6FDF8",
"MX c #DCF0E5",
/* pixels */
"                                o     $ . . $ b { & d L.,XiX$X~.Y . z.W l.. . X     O o       X                                 ",
"                                    % . . [ I . . /.vXxXlXbXjXcXxX,X. . ;.p.    O O     o                                       ",
"                                      O :.j.L.j.,X. . l..X#X'.e.$   @XW a.;.;.    O o O                                         ",
"                                      ~.L./.k.xXxXe.$XtXrXkXfXaX:XL.vXvXL.@X.Xp.O     O     o                                   ",
"                                    /.] >.>.cXbXXXeXkXtXlXrXfXdXjXtX'.. . Y e.W [           X                                   ",
"                                  X 0.I a.. . XXrXrXiXgXrXjXdX8XrXxXsX.X5 < p.s z.    o o   X                                   ",
"                                .   J b xXbX X7XgXgXeXhX,X;XdXdXsX<XkX5X.XbXnXb n . O   O                                       ",
"                                  d.r &X:XP.4X0XsX5XhX4XXX:XXX0XjXsXfXfX>Xp.L./.: .     o                                       ",
"                                  (.'   $ XX9X7XdX4XdX0X4X0X0XdXrXaXsXaX8X`.bXbXb   O O   o                                     ",
"                                .   { :.Y :X0X0X9X9X9XiXdXdXdX;XaXxXjXrX0XXX. . d -X!.        +                                 ",
"                                l.`.`..XP.7XdXzXzX9X4X_.0X4XP.0X8X*X<XjX4X X;.= f.q U O     X                                   ",
"                                n z.`.'./.'.P.>.Q b ;.` :X0X>.b b d 4 s >.*Xb * . nX-Xo       @                                 ",
"                                $ ,X$ vXP.P.b ;.r = < P.gXhX;Xr ;.4 s ` XX*XP.4XnXnXn o O o                                     ",
"                                [ nXvX$XP.XXk.>.< v b 1XuXuXzX` ` r m.%.9XP.>. X$ . g.O   o   +                                 ",
"                                f 1 5 '.>.;XP.] ] ;.a.4XuXuX0X#Xa.F.;.P.uX*XXX XO O U o O     o                                 ",
"                                h.kXdX'.XXXX0X;X4X@X@X9X X*X;X7X XgX9XdXfXP.9X_.xXxXU     O                                     ",
"    o   o o o o o o o     o   . p.@XkXjX.X~.aXdXlX0X4XuX4X4XaXfX0XfXuXuXaXL.p.>.bXI z.  .                                     X ",
"X         +   o   O     +       b Y } aX<Xx.8XdX0XuXfXhXfX0XfXdX0XdXlXuX7Xk.K.L.. . G .     X X                                 ",
"  X     @     o O   . .   . O . e.:X>X'.vX$ ;X<XfXfX9X*XP.k._.:XfXgX;XfX:XvXvXY p./.+X      o                                   ",
"            %       O   O   %     j.Y d x..Xx.<XuXfX6X*X4X;X>X#XuX6XlX>Xb ] L.. `.        X   X                                 ",
"e.g.z.' ' +X.   #   # X X +   o   . ~.L.cX#X@X~.&X6XzXlXgXeXjXzXzXiXeXK. X XQ Q ).%     o     X                                 ",
"g.Y t ' $ . /.4X.       X   o o   . . l.`.`.j.w ;.>.^.*X4XtXeX@X}.;.r a v 4 # # g.  X     X                                     ",
"n I e.>X} x.} b ;X7X. .   O o o .  X0.    s xX  v E E x y !.).a v ;.i.v mXmXa l # 9 d.}.X     O                                 ",
"5 < b k.h.` h.'..Xe.'.. .   !.^.X +XF./ ;.. # l %.;.u. .; l / 6 8.m.J.=.0 X * T / P t.pX6 J +X        .   .                     ",
"' { d { h.x.h.{ r b ] %.r.m 9.<.^ ^.}.y e 2  .T  .i.y.=.m 7 7 u =.m.Z.7.z  .z X mXX ).a.( / q.t.) f.e.t.[ 0.                    ",
"$ { ' ' { h.k.$ $ r 9X3XwXwXwXyX* wXX / u.@.u.R $.m.7.r.8 u m m 8.v.C.5.A =.8. .v x F.#.L nXvXtXz.jX=XU !.=Xt                   ",
"[ } I h.{ { h.z.1 r bX. ! X N s.<.y.A.A.u.D.v.A *.v.v.7.8 m C m v.c.H.6.D o.8.A.m.i.m.] ;.L # : 9   . .     . O                 ",
"l.' } } k.1 $ } :.e.e.Q d.d.I.I.A.R.C.T.m.V.X.z o.b.b.7.j C C S m.c.n.n.D | O.8.F.m.N.K.u.s.K.i.n ~.e.' p.p.t                   ",
"$ .X' & 1 h.$ . z.K.t.#.S.V.M.M.B.3.M.3.7.7.*.A O.n.M.7.D C C N B.c.n.G.A o.5.v.c.c.m.N.N.F.D.i.-XkX`.U 0.l.r #                 ",
"  . . z.t d n vX= J e u 3.v.2.n.b.B.M.6.M.8...A *.n.n.7.+.R C m m.v.v.W.A D v.v.V.X.m.m.8.$.V.^ t.+XK.    , .                   ",
". O . . l.' l.g.w . 2 2 ,.7.v.v.b.U.+.M.M.X...j 1.n.M.M.Z ~ T m M.M.m.^...j *.*.v.m.c.v.m.v.=.V 4 = < , & & & .   .             ",
"      . . 0._ _ a [ O 2 k I.J.Z.B.1.y.Z. .3.j B 3.M.M.Z.m ~ ! y N.N.7.J.5.8 X.X.c.m.c.B.v.m.M.j d t . < . a '                 o ",
"X       X   z.0.  9 : 0 7 r.A.C.1.*.J.y. .E * z =.m.G.G.V R ^ y N.D.v.J.m.X R %.| v.B.n.n.C.4.u p G q tX0.!..                   ",
"    .   .   -   0 : 9 @ ; T S.<.1.Z.8. .%.j F.z =.v.G.G.B R ^ j =.W.v.J.V.X c E ,. .8.C.U.I.@.i t % n O %   O                   ",
"          X     0.  9 : + y <.9.Z.B.m.E x e 2  .=.m.G.G.B R ^ y D.V.m.J.J.j e * R O.O.b.7.[./ i n _ O U .                       ",
"  .       @   @ e.9 : 7 a 7 N I.y.3.-.v  .* *  .5.m.C.Z.m Z ^ y 8.{.=.m.J.z  .%.X V +.+.y.r.p q t t q /.O                       ",
"    . X         O [ . , @ ; 2 r.r.m u X x 2 e R 8.v.H.C.S C ~ y *.J.Z.B.].=.i.u.%.u.k Z ^ N , q t n n O       o                 ",
"X           @       %   : - 2 a y S.u.M i e e -.4.m.C.B.S C ^ j =.W.H.5.].=.^.K.l @.3 3 N 6 < q t 6 l.  .                       ",
"        . X       . _ O   @   X K @.l M E T z X.8.m.B.B.S Z ~ y X.].c.B.G.N.mXmX#.X K ).).  q t q n O       O                   ",
"  .           $     . a q.U : t.x X X #.F.S.r.@.3.y.B.M.m Z ~ j X.[.H.5.[.Z.X X l P ; u L d & & , f.                            ",
"                    . % 9 t a i X + ( u.S.D.r.3.3.U.3.n.S Z ~ m  .R.G.c.Y.T.m M w.( J i a d ~.z.0.%                             ",
"                . . .     .     O     ,.^.I.R. .3.U.3.s.S Z C S -.[.n.v.U.R.~ ! w.!.      . . O O     O     o X                 ",
"                  .   . .         X X l   X N.<.7.b.6.b.S C Z S Z J.G.c.6.oX4.(.}.) !.  O   . .     O                           ",
"                    .             . t.r.,.r.B.1.n.s.6.y.S C Z m V C.n.c.n.Q.y.mXnXL w.      % . O       X o                     ",
"                      .             (.K | Z R.o.B.b.3.b.S C ~ S Z m.n.n.2.Q.E.0 i L w.          .       X     X                 ",
".                         o X o     N s.I.M.5.1.n.7.1.A.S C ~ j V V.c.c.n.Q.E.k p q.w.    @   O   O                             ",
"                                    }.I.{.E.C.o.B.6.9.U.S C +.S h y.G.2.2.Q.Q.~ #.q.qX-                   X + X                 ",
"  .           X                     t.wXyXT.n.o.n.2.9.U.m C ~ j h M.b.n.2.n.{.<.1XpXi )   +           X                         ",
"                    X             d.v X * v.*.*.B.X.v.J.B Z | h g c.G.c.=.V.|.v.X X p J                                         ",
"                    O       O X   F.2 2 3 V.-.v.v.X.8.J.m Z D S g c.B.v.=.m.|.B.3 l p L     o                                   ",
"                      X X       X 0 u.E.m.m.*.=.5.X.m.J.S C Z h g =.v.v.c.c.|.J. .@.u.0   @                                     ",
"                  X         @ @ ~.i.1X1XR.J.*.c.&.o.V.Z.S Z C S 8 *.v.m.c...Q.[.=.I.%Xx q.                                      ",
"                  X             f.M X X Q.Y.F c.o.o.U.7.h ~ M m 8 X.m.B.c.F J.|.M.V T %.K                                       ",
"                        O +   @ K f.N.8.|.Y.2.2.&.o.E.3.h T M M 8 -.v.B.c...n.|.Z.=.8.u.X w.  X                                 ",
"                    O       @ t.F.pXMX{.3Xn.F &.&.&.W. .m T N C e z m.m.n.*.c.Q.W.4.OX%XM l                                     ",
"                X       X     t.a X X oX3X1.F &.&.&.[.~ k C M K e c 8.m.G.*...W.{.r.R / #.q X X                                 ",
"                    X   O     nX).s.d.qXn.F o.1.o.3.{.m C ! N K x u 4.N.N.3.=.Z.OXJ.;.^.(.p .                                   ",
"                      +   X   ) mXnX^.%X9.o.1.| 9.y.{.y N N N ! e 9 / r.S.4.~ =.D.t.u.    v   O                                 ",
"                    o O       ) X X s.m B Z C C Z <.S.u - 7 - - 4   a ! y 3 2 0 3 ; P !.(.(                                     ",
"                  @         +         + X X X X X X +   o o o o     + X   X X X           .   o                                 ",
"                        @     ) nXnX,.,.^ ^.@.!.nXnX1X7 i 0 6 6 6 > n #.! 7 0 a J d ( J U L o                                   ",
"                    X O     @ o d.d.  tXT u / 9 q a q   i p C g.(.n ! w.! w.w.  .             +                                 ",
"                          X                 @             o o o o o o o         O   .   o o   X                                 ",
"                  o         @     X     X     . . . .   o       o o     O       . O   o     +                                   "
};
