/* XPM */
static char *rsz_1images_removebg_preview1717178191[] = {
/* columns rows colors chars-per-pixel */
"64 64 254 2 ",
"   c None",
".  c #79291A",
"X  c #672C1C",
"o  c #793526",
"O  c #7A3C34",
"+  c #6C352D",
"@  c #791F04",
"#  c #78453B",
"$  c #784B43",
"%  c #6F6B68",
"&  c #8A1E05",
"*  c #852509",
"=  c #8D2B0D",
"-  c #872609",
";  c #92250C",
":  c #932A0C",
">  c #98270B",
",  c #9A320E",
"<  c #872A14",
"1  c #932B11",
"2  c #9A2B14",
"3  c #8A3216",
"4  c #9B3215",
"5  c #93391D",
"6  c #983616",
"7  c #8C310E",
"8  c #A3330D",
"9  c #A43414",
"0  c #AB3513",
"q  c #A33A14",
"w  c #AC3B15",
"e  c #AC3B1B",
"r  c #A7381B",
"t  c #B23C17",
"y  c #B23B1C",
"u  c #B33818",
"i  c #A42D0D",
"p  c #87382B",
"a  c #9A3C26",
"s  c #8E3C30",
"d  c #A33D24",
"f  c #AC3D23",
"g  c #A33E2A",
"h  c #B23D22",
"j  c #98411F",
"k  c #AC431D",
"l  c #AA4618",
"z  c #B3421D",
"x  c #BB4A1C",
"c  c #B9481B",
"v  c #B0511A",
"b  c #9C4225",
"n  c #98452B",
"m  c #8D493A",
"M  c #9A4A3C",
"N  c #964737",
"B  c #9A5339",
"V  c #8D402E",
"C  c #AB4323",
"Z  c #A5442B",
"A  c #A74628",
"S  c #B34323",
"D  c #BB4B22",
"F  c #BD4C2C",
"G  c #B74826",
"H  c #BA5228",
"J  c #A84836",
"K  c #BD4C31",
"L  c #A45638",
"P  c #B55837",
"I  c #A6502F",
"U  c #B4613F",
"Y  c #C44C19",
"T  c #C5551A",
"R  c #CC551D",
"E  c #CC5B1D",
"W  c #C45818",
"Q  c #D1561D",
"!  c #C24D24",
"~  c #C44927",
"^  c #C35424",
"/  c #CD5B24",
"(  c #C3532B",
")  c #CB532B",
"_  c #CB5B2C",
"`  c #C85824",
"'  c #D15423",
"]  c #D45C25",
"[  c #D45C2C",
"{  c #DA5E2B",
"}  c #D45729",
"|  c #CB5532",
" . c #C75735",
".. c #D35C33",
"X. c #D55936",
"o. c #CE4D35",
"O. c #CE6226",
"+. c #D36325",
"@. c #D4632B",
"#. c #DB632C",
"$. c #DB692E",
"%. c #D76729",
"&. c #C66635",
"*. c #DB6232",
"=. c #D5623C",
"-. c #D86735",
";. c #D47338",
":. c #CF7030",
">. c #E2682D",
",. c #E36536",
"<. c #CC601F",
"1. c #845149",
"2. c #9A5647",
"3. c #97544A",
"4. c #A35C49",
"5. c #B65D46",
"6. c #976C55",
"7. c #BA6649",
"8. c #A86C53",
"9. c #B46B59",
"0. c #A8755C",
"q. c #AA674C",
"w. c #8B7869",
"e. c #997B6B",
"r. c #867C74",
"t. c #A37C6A",
"y. c #A47B68",
"u. c #BB7C65",
"i. c #B2746D",
"p. c #CC5D43",
"a. c #C4664B",
"s. c #DB6743",
"d. c #C36751",
"f. c #CC7C5E",
"g. c #C67458",
"h. c #D1795A",
"j. c #CA7D63",
"k. c #C07E75",
"l. c #E26C46",
"z. c #9E816D",
"x. c #8D847D",
"c. c #988578",
"v. c #A8836C",
"b. c #BC866C",
"n. c #B7876B",
"m. c #A48474",
"M. c #AC8C7A",
"N. c #A88776",
"B. c #BC8C74",
"V. c #B38D7B",
"C. c #BB8D7B",
"Z. c #B48873",
"A. c #BC937B",
"S. c #B79279",
"D. c #AE9078",
"F. c #D8844F",
"G. c #F59C5D",
"H. c #C28566",
"J. c #C3856B",
"K. c #C58A6C",
"L. c #CA8B6D",
"P. c #C98468",
"I. c #D38363",
"U. c #D98B6A",
"Y. c #C38B74",
"T. c #C78C74",
"R. c #C79579",
"E. c #D69676",
"W. c #D08872",
"Q. c #E69A79",
"!. c #E79369",
"~. c #F5AA7B",
"^. c #948B86",
"/. c #9B938D",
"(. c #938E8B",
"). c #A88E84",
"_. c #A99686",
"`. c #B79988",
"'. c #A89B94",
"]. c #B6908A",
"[. c #BBA38A",
"{. c #ACA49A",
"}. c #B6A698",
"|. c #B1AF95",
" X c #9AB1B0",
".X c #B4AAA5",
"XX c #A9B9A9",
"oX c #B6B4A9",
"OX c #A3B3B6",
"+X c #AAB4B5",
"@X c #9CAE9E",
"#X c #C59B84",
"$X c #DA9D84",
"%X c #EC9D80",
"&X c #C8A88C",
"*X c #D8A687",
"=X c #DEB18A",
"-X c #C8AA96",
";X c #DCAE95",
":X c #D3AC94",
">X c #CCB39E",
",X c #D9B497",
"<X c #E4AC8B",
"1X c #EBAD8B",
"2X c #E6A585",
"3X c #F5AA8B",
"4X c #E5B38C",
"5X c #EBB38D",
"6X c #E8B88E",
"7X c #F2B38E",
"8X c #E4AC94",
"9X c #F9AB92",
"0X c #E4B492",
"qX c #ECB593",
"wX c #E6BA94",
"eX c #ECBA93",
"rX c #E2B49C",
"tX c #E4BB9B",
"yX c #ECBB9A",
"uX c #ECB59B",
"iX c #F4B593",
"pX c #FBB595",
"aX c #F3BA95",
"sX c #FBB996",
"dX c #F3B59A",
"fX c #F3BB9B",
"gX c #FBBB9C",
"hX c #FFB59D",
"jX c #CBAFA1",
"kX c #C4B2A2",
"lX c #CCB4A3",
"zX c #C5B5AB",
"xX c #CCB7AA",
"cX c #DCBAA4",
"vX c #D5B7A5",
"bX c #CBBBB3",
"nX c #D2BEB1",
"mX c #E2BCA2",
"MX c #E6BAA4",
"NX c #FBBBA1",
"BX c #EBBFB2",
"VX c #B5C6BE",
"CX c #ECC09B",
"ZX c #FAC19D",
"AX c #D7C4B6",
"SX c #CCC7B0",
"DX c #EAC2A6",
"FX c #FAC7A7",
"GX c #ECCAB4",
"HX c #F9D4B6",
"JX c #A7BBC4",
"KX c #E9D9CA",
"LX c #FFF5EA",
"PX c #DDDDCE",
/* pixels */
"                                                                                                                                ",
"                                                                                                                                ",
"                                                                                                                                ",
"                                                          lXjX-X`.D.z.z.m.z.N.`.                                                ",
"                                                      >X,XcXDXcXmX,X,XR.S.A.C.V.V.t.                                            ",
"                                                    cXcXDXtX,XCXCX=XCX*XR.R.n.b.b.].M.e.                                        ",
"                                                  DXMXwXtX0X4XwXCX=X6XeXqX2XK.T.T.T.C.#XS.                                      ",
"                                                tXwX0XeXeX6XwX6X~.CX6XaXgXZXdXP.$XT.Y.Z.V.S.                                    ",
"                                            DXwXeX6X6X6X5X4X6XeXwX6X=XCXaXsXiX1XP.g.T.R.K.S.A.                                  ",
"                                          ,XDX0X6X6X7X7XaX6X6X4X=XwXwX~.1X1X7X7X2XP.H.T.n.n.K.S.                                ",
"                                        DXMX4XeXaX5X5X5X6XeXeX6X=X=XwX6X<X4X5X7XaXE.H.H.K.K.K.R.V.                              ",
"                                      GXtXwXeXqX7X7X5X5X7XeXqXwXCXCX6X6XaXaX6X1XaX2XE.H.K.K.H.n.#XN.                            ",
"                                      tXyX4X6X7X5X7XaXZXaX5X4X4X6X4X<X4X5XeX6X5X5XqXQ.B.n.L.L.K.b.C.                            ",
"                                    =XtX0XZX4X5X7X7X7X5X7XqXaXfXaX6XiX6X4X4X5XCX6XyX6XE.H.K.L.K.J.Y.C.                          ",
"                                  tXyX=XZXeXaX5X7X7X~.4X4X7XqXaX7X7XiXaX7X6X6X6X6X6X6X2XL.H.L.K.W.J.R.N.                        ",
"                                GXwX=XCX0X5X5X7X5X1X7XsXsX1XQ.I.f.I.U.Q.iXsX6X6XwX=XyXCXE.K.L.K.L.u.b.].                        ",
"                                yX4XCX=XeXqXfX4X5XiX3XU.U A 4 4 1 4 = : I U.2XaX6X4X4XFXQ.H.W.H.K.T.J.R.t.                      ",
"                              HX6X7XyX4XyX<X4X5XsXQ.7.6 6 k f q e C y G = - I 1XZX4XeX4XeXE.L.H.H.L.Y.Y.Z.                      ",
"                              yX4X5XeXqXfX5XqXpX!.Z , w q , q A , w 0 u z S 4 = !.sX5X6XwX*XH.P.H.L.J.Y.Y.M.                    ",
"                            HXuX4X0XqXqXuXgXpXQ.j 4 y u w F H H z H c 0 i t 0 q q Q.7XeXtX4XH.L.P.L.k.Y.`.m.                    ",
"                            MX0XyX0XuXqX<XgXQ.I 1 S c 8 ) s.( s. ...| X.~ u > 8 & C pX<XDX0XW.P.L.L.b.T.C.m.                    ",
"                          HXyX0XfX0XyXfX<XpXg.- k w z Y l.X.G l. .=.| X.) ) 0 8 : * g.pXqXyX$Xk.L.K.K.Y.Z.M.                    ",
"                          HX0XfXtX8XuXyXuX3XA : t w _ _ ( p. .K A I G X.s.-.v q 8 ; : Q.3XNX<XJ.L.b.Y.B.V._.'.                  ",
"                        FXFXNXdXeXyXqX1XiXE.- r G i ) s.P K I L q.B n G  .=.D l , ; : a.NXuX1XR.K.n.B.Z.`.`._.                  ",
"                      E.E.7.5.f.5XfXiXNXiXg.= h u D X.| b B &XGX>X[.8.I v s.( H w 9 - 5 3XuXiXR.b.Z.MXGXAXxXzX                  ",
"                    M a K J d 5 n E.pX3XhXP 2 S t | X.p.B ,XSXSX|.SX[.8.n H ( | w 9 ; 3 E.dXiX$XB.R.DXvXjXnX.X                  ",
"                  J J p.p.h p.h * J 3XpX9Xg 2 h k  .K J y.KXXX@XXXPXSXD.B A ( s.u w > - 9.aX7X<XR.C.cXcXnXnX{.^.                ",
"                  J d o.K h h g A @ 7.NX9XZ 9 h C =. .n [.SXXX XOXVXXX|.4.b F s.y y 2 * L sX7X2Xb.y.`.`._.r.'.                  ",
"                  5.g d J K g 2 a 5 3 3X9Xd 9 u k P a.V [.XX+X+XOXOX@X|.6.j v s.D y 9 - b sX7X2Xb.Z.e.w.w.x.KX                  ",
"                  2.2.s s p . o < h.g.Q.Q.6 r 0 c &.K g `.XX+XOXOXOXXX|.8.j S =.H z 9 ; 5 3XiX*XZ.A.`.[.lX.XbX                  ",
"                  M p $ 1.$ + + B sXFXiX!.1 S e ( s.o.h V.oX XJXOXJXXX{.4.f c |  .G 0 : 3 E.sX=Xn.A.cXAXAXzX'.                  ",
"                    1.$ $ + + + 9.ZX5X7XQ.& S e D | o.h 0.-XXX XOX XXX`.M f ~ ,.| G 9 : 7 U.ZXyXA.#XHX>XkXAX}.                  ",
"                    e.O $ # # X W.iXqXsXI.6 y 0 ~ X.X.K n B.lX{.XXoX[.0.B q  .=. .H , , * I.aXyX#XA.:XvXkXkXx.                  ",
"                      1.1.+ o O E.aXiXsXI.1 h u ~ X.| G 5 q.A.-X-X`.v.m j , | -._ ( 8 7 - P.aXuXR.y.t.t.w.c./.                  ",
"                      1.m B p . *XfXeXaXI.7 C 0 ) } &.( I A L 8.0.q.m 5 C D @.-.) ^ 8 : * h.dXdXMXy.t.m.c.KX                    ",
"                      3.4.9.M . *XeX4XeXf.< k 8 H ( ` H s.H A A n a b C  .[ ..[ ` H 9 ; * g.dXMX;Xv.V.M.).KX                    ",
"                      i.m . . s <XeX0XaXf.7 C l l :.:.H -...( ( F ( ! T #.] { { ) ( w ; < g.uXrX:XN.Z.m.^.KX                    ",
"                      $Xk.u.W.9XqXyXqXpXf.= A 6 &.G.G.:.@.{ } X.) ..@.E $.Q Q { } ) f > < 9.8X:X,Xv.v.M._.LX                    ",
"                      8XNXNXgX9XuXiX1XpXh.= l , F.~.G.:.E ] ' { ' [ >.<.>.Q Q #.) ~ h ; < 9.;X-XD.6.N.)._.LX                    ",
"                      :XDX<XuXuX1XiX7XpXh.7 l l v F.F.:.] >.Q #.Q { +.W +.Q +.>.~ ~ h ; < 9.:X-X-X`.m.c.}.                      ",
"                      ;XtXtXeXqX7XiXsX3Xh.= C q H &.;.v R W ] ] R +./ W %.W +.<./ ! e 2 < 9.rX:XcXV.t.m.}.                      ",
"                      ;XCXwXyX5XiX5XsX3Xh.: k q H D H v #.] / ] R #.O.W %.W %.O._ D h 2 < 5.;X&XS.e.t.m.-X                      ",
"                      ;XtXwXeXeX5X5XeX7Xf.7 C 0 ( c ! Y ,.{ ] +.Q { ] W $.v @._ ) F u 2 ; d.iX8X&Xv.N.m.kX                      ",
"                      ;X,XeX6XeXeX6XeX7XI.= S q ( ! X.) ,.{ / #.' { +.T $.W @._ _ F u > ; d.hXdXyXY.Z.t.lX                      ",
"                      rXwXeXqXaXyX0X6X7XI.7 k 0 ( ( ..} ,.{ / ] ' { { R $.T #._ | F e > & a.pXdX0XB.Z.t.xX                      ",
"                      rXwXyX<XqXyX0XaXsXI., z 0 ! ^ ..} { { E #.Q { ] R $.R { X.( D e > ; d.pXqX0XC.Z.t.jX                      ",
"                      rX,XyX4XqXyX4XqXsXU.1 z 0 D ^ -._ { [ E $.R #.] R >.Q } } ) G w 2 ; 9.hXeXyXB.b.t.-X                      ",
"                      MXwXCX<XqXyX1X7XsXI., z 0 D _ @.` [ +.E +.R #.+.R >.Q { { ..( e > & 7.iXqXyXb.n.Z.`.                      ",
"                      MXwXqXfX5XiXaX<XiX!.- k w x _ O.O.] / W O.R #.] R >.' { [ ^ | 9 > = g.pX5XaXR.B.v.`.                      ",
"                      cXyX0X5X7X5XaX6XiXQ.7 e w x ` O.` #.%.+.$.R +.{ R ,.R .._ _ _ 0 : * d.iX1X5XR.n.v.M.                      ",
"                      DXtX0XaX1X5XeX0XaXQ.3 l 0 ! _ [ / { Q R / T +.+.R #.R @.^ ^ H q : * g.NXgXCXE.v.n.m.                      ",
"                    vXMXwX6XZX6X5XeXuXaXQ.j q e x ) [ [ ] Q Y Y E O.O.R $.R @.^ D F q : - H.FXFXZXE.v.S.z.                      ",
"                    vXcXDXtX0XeXqXuX0XqXQ.p r u y } [ ] { { R / <.O.+.W #.R #.T ^ ( r : < j.hXfXZX=Xv.n.z.                      ",
"                    vXcXMXtX0XwXyXuXwXuX%Xa 9 h ~ } [ / #.[ [ $.<.+.+.E #.R #.x x ~ e : < j.dXuXCXCXn.Z.z.[.                    ",
"                    lX>X:X:X,XyXuXqXyXiX3Xa 9 y D ) [ ` / / ` :.+.%.+.Q { Q #.c u D r 1 < j.dX8X6X6Xn.D.D.c.                    ",
"                    xX>XvX&X&X,X0XqXyXuX3Xb 4 u u ! _ / @.O.W O.+.%.Q W { ' *.c t G r 1 < j.uX;XE.,XS.v._.e.                    ",
"                    bXvXvXKX&XS.wX5X4X4X3XZ 2 y c ^ _ _ @.O.O.-.+.$.{ } [ _ ! D i f Z * < u.8XMX&X#Xy.M.M.m.'.                  ",
"                    bXnXlXxX>XD.:XwXDXyXiXL 1 h e x D x H ^ c ( ^ H x c c t e e d J Z . . u.MXvXGX-Xm.e.^._.r.                  ",
"                    zXbXxXkXAX[.`.:X;X:X8X4.1 f 4 r q 9 t w 8 w S w w y f f C A a g a p O i.BXvX>X-Xw.}.AX    oX^.              ",
"              (..X.X{.}..X{.{._.  >X-X[.#X6.o p n n a 6 Z Z d g 5 Z g a d a n a g s p p O 0.jXjXkXzXx.zXbX}.  (.^.%             ",
"                {./.^.^./.(.r.^.  _.    }.#Xi.k.8.2.2.2.M M N s s M N s N 3.N 3.2.2.i.i.].].).^.^.r.^.^.(.'.{..XoX              ",
"                                                                                                                                ",
"                                                                                                                                ",
"                                                                                                                                "
};
