/* XPM */
static char *rsz_4download1717091535[] = {
/* columns rows colors chars-per-pixel */
"64 64 228 2 ",
"   c #050900",
".  c #0C0C03",
"X  c #0A0E0E",
"o  c #080906",
"O  c #0D120D",
"+  c #0C1109",
"@  c #15140D",
"#  c #15180A",
"$  c #0B0D12",
"%  c #0D1213",
"&  c #0E151B",
"*  c #0D1A1C",
"=  c #121415",
"-  c #131915",
";  c #1B1D15",
":  c #13151A",
">  c #141C1C",
",  c #1A1D1D",
"<  c #211E16",
"1  c #16211E",
"2  c #1C221D",
"3  c #1C291D",
"4  c #192115",
"5  c #23241D",
"6  c #232A1D",
"7  c #292819",
"8  c #312B19",
"9  c #373012",
"0  c #0B1D25",
"q  c #0C1E29",
"w  c #141E22",
"e  c #1A1E21",
"r  c #0E2125",
"t  c #0E212B",
"y  c #142225",
"u  c #1B2324",
"i  c #1D2925",
"p  c #12242B",
"a  c #1B2529",
"s  c #16292D",
"d  c #1B2A2C",
"f  c #142631",
"g  c #162A31",
"h  c #1A2D33",
"j  c #1C2F38",
"k  c #1D3235",
"l  c #1D333A",
"z  c #222523",
"x  c #232B25",
"c  c #2A2B24",
"v  c #222629",
"b  c #232B2B",
"n  c #2A2D2B",
"m  c #2A2720",
"M  c #273226",
"N  c #2B3325",
"B  c #25312D",
"V  c #2C332C",
"C  c #2E392B",
"Z  c #343223",
"A  c #33342C",
"S  c #333A2C",
"D  c #3B3829",
"F  c #232E31",
"G  c #2A2F31",
"H  c #233335",
"J  c #2B3432",
"K  c #2D3934",
"L  c #22353A",
"P  c #29353A",
"I  c #253A3C",
"U  c #2B3C3D",
"Y  c #263935",
"T  c #333633",
"R  c #3B3731",
"E  c #343C34",
"W  c #3A3D34",
"Q  c #333C3A",
"!  c #35383C",
"~  c #322C20",
"^  c #423918",
"/  c #453E33",
"(  c #2C413E",
")  c #3B4335",
"_  c #35423C",
"`  c #3B433B",
"'  c #3A493E",
"]  c #37402F",
"[  c #47432A",
"{  c #42443B",
"}  c #434A3C",
"|  c #484739",
" . c #534C3E",
".. c #4C503E",
"X. c #595439",
"o. c #534A2D",
"O. c #253C40",
"+. c #2A3E41",
"@. c #343F42",
"#. c #2D4243",
"$. c #2C4348",
"%. c #324544",
"&. c #3C4441",
"*. c #354845",
"=. c #3B4B44",
"-. c #324649",
";. c #354A4B",
":. c #394D4B",
">. c #3E514C",
",. c #3F5145",
"<. c #3B4E51",
"1. c #3D5252",
"2. c #424C44",
"3. c #4A4D43",
"4. c #434D4A",
"5. c #404644",
"6. c #435045",
"7. c #4C5344",
"8. c #44534C",
"9. c #49554C",
"0. c #4D594D",
"q. c #535C4C",
"w. c #5B5E4D",
"e. c #545649",
"r. c #425453",
"t. c #4B5552",
"y. c #455855",
"u. c #4C5C54",
"i. c #46595B",
"p. c #4A5C5B",
"a. c #42555A",
"s. c #535C54",
"d. c #555C58",
"f. c #56614F",
"g. c #5B634E",
"h. c #4E615A",
"j. c #4F6155",
"k. c #546154",
"l. c #5B6454",
"z. c #5D6955",
"x. c #54655B",
"c. c #5C6A5C",
"v. c #59665B",
"b. c #63624F",
"n. c #616553",
"m. c #666956",
"M. c #636C5B",
"N. c #696C5B",
"B. c #736D5B",
"V. c #66725D",
"C. c #69735E",
"Z. c #78745B",
"A. c #756F4B",
"S. c #4A5D61",
"D. c #4F6161",
"F. c #526563",
"G. c #576861",
"H. c #5C6C63",
"J. c #596C6A",
"K. c #5E726A",
"L. c #5E7060",
"P. c #5F7374",
"I. c #656E61",
"U. c #686E60",
"Y. c #646869",
"T. c #647364",
"R. c #6B7363",
"E. c #6C7A64",
"W. c #64756A",
"Q. c #6C7669",
"!. c #6D7B6C",
"~. c #727663",
"^. c #737A65",
"/. c #737C6B",
"(. c #777968",
"). c #677971",
"_. c #747E71",
"`. c #7A7E72",
"'. c #827C5A",
"]. c #75836E",
"[. c #7C826C",
"{. c #708066",
"}. c #748373",
"|. c #7B8473",
" X c #7C8B75",
".X c #7C8A79",
"XX c #788678",
"oX c #748674",
"OX c #86876B",
"+X c #838A74",
"@X c #848D7B",
"#X c #878975",
"$X c #85917D",
"%X c #8B947D",
"&X c #95967B",
"*X c #918D70",
"=X c #869282",
"-X c #8C9583",
";X c #8C9A83",
":X c #8F9D8E",
">X c #939C84",
",X c #9A9C85",
"<X c #949C8B",
"1X c #949885",
"2X c #858D82",
"3X c #A79F88",
"4X c #9BA28B",
"5X c #9AA187",
"6X c #9AA391",
"7X c #9AA594",
"8X c #A2A88B",
"9X c #A4AC94",
"0X c #A6AC97",
"qX c #ACB093",
"wX c #ACB29B",
"eX c #A6B19A",
"rX c #B3B69B",
"tX c #B6BA9E",
"yX c #B7B89B",
"uX c #ABB3A2",
"iX c #B6BCA4",
"pX c #BDC2AC",
"aX c #B8C3B3",
"sX c #C9CCB4",
"dX c #D2D5BE",
"fX c #C5C5A9",
"gX c #D8DCC3",
"hX c #CAD1C1",
/* pixels */
"T.W.T.c.).W.W.,.#.%.#.( U U U U k ( ( k l k g p g f t q q q q q q q 0 0 0 0 0 0 q 0 0 0 & 0 0 q f j f f r r r s 1 0 0 y w 0 w y ",
"_.!.)..XL.x.).j.>.=.*.( ( #.%.%.( %.( k ( l g s g g t q q q q q q q q 0 0 0 0 0 0 0 0 0 0 0 0 q f f g a s p y r y r 0 y y 0 0 y ",
"}.}.T.!.,.,.W.x.>.>.*.*.+.@.&.:.( %.#.Y Y k h s f f t t q q t t q q 0 q 0 0 q 0 0 0 q q 0 0 0 0 g h F g s d s p y 0 w y y y y y ",
"Q.=XM.l.0.u.W.K.j.8.>.=.*.&.:.<.%.( ( I ( k h g j f f t q q f t q q q 0 q q q q 0 0 q q 0 0 0 0 p F h g s d k p y r r y p p y 0 ",
"n.@XE.M.M.c.oXoXG.j.>.>.=.*.=.y.>.( I ( I k h f f f t t t t t t t t q q q q q q w q q q q q q 0 y p s s s d s r p r 0 y y y y w ",
"l.N.|.`.M.q.XX.XW.c.j.,.=.%.>.x.>.( Y ( I h s s f f t t f t t p t t t t q q q q q q q q q q 0 q 0 p h d k h t * y p a y y p y y ",
"~.*X0X6XE.n.!..XoXL.x.j.8.=.y.x.j.( Y %.I k h h t f t f f t f q f q q t t t q q q q q q q q q q 0 r p h h s t * p s s p t y p p ",
"(.pXgXiX;X/.g.E..X].E.K.x.0.j.H.h._ U %.Y k s k f f f f f f f q q f f t t t t q f q q q q q q w r 0 0 t r r 0 0 p s h g y y a a ",
"&XdXgXdXqX XC.V.{.K.oX{.L.x.j.0.H.B H ;.%.s k s g f h j L g q p f f q f f q q f q q f q q q q t 0 0 r 0 0 0 r 0 * r h p r s y s ",
"yXsXsXgXtX[.{.C.f.z.oXoXL.W.L.j.W.B Q >.#.B d h p h j L P g p f f q f f f q f q f f q f t t t t 0 r t r r r 0 r 0 r d p p s r y ",
"fXyXtXgXtX%X%X$X%Xz.z. X X X}.].v.d _ r.U U k k s k L O.O.g p g q f f t q f f f f q f q t f t f t t t r r r r 0 0 r h s y s r r ",
"rXyXrXsXtXeXqX7X7XV.z.%X}.0.7.W.2.3 J y.*.%.Y s k l L L P j a g f j j f q f f q f f f f t f f t t t t t t t t r 0 r h d s d r r ",
"&XyXyXtXrXtXeXeX5X^.q.N.q.] } }.E M B p.y.:.:.l l l l l L j p a j O.j j f f f f f f t f t f t t t t t t t t t t s s k s s y r y ",
"&XqXqXyXqXqX5X4X>X|.R.@X|.f.w./.K J b 8.y.:.1.#.#.I l k L L j h j O.O.f f f f f f f f f f f f f g t t f t t s h h s h r r s r s ",
"OX&X&XqX4X8X>X>X4X=X1X<X|.w.M.U.V V B _ r.*.;.( O.( l k l l l l j j j j f j f f f f f f f f f f g t t f t t g l k h k h s s r 3 ",
"[.OX&X8X&X7X5X>X^./.@X@X`.`.`.W c b Y J 8.*.l ( k I k k h k h l j f f f f f f j f f f j f f f f g g t g p t h I l l #.( ( k s p ",
"{. X.X;X;X;X;X%X@XI._.Q.R.U.7.A x v b B G.8.%.%.%.1.k h s k l l g g g l j g g g f g p s H I I #.t g g s s g h l l I O.Y l Y k k ",
"L.{.oX$X;X;X;X;X2XR.2X`.`.I.{ A c B u v &.u.,.>.>.i.1.( $.l l l f l l t t j l p f l y j 1.( r Y g t t r s h k h I I k k k k l l ",
"L.{.oXoX X X%X.X2XI.XXQ.`.l.) E T C b x T G.j.h.,.( %.( 1.$.l g l g j j j g g j h h y O.S.;.d #.O.k s r s k l l I l k s k k k k ",
"L.{.{.oX X]. XoX-XM.Q.^.XXY.M.| ) ` W C 9.c.u.x.j.*.( ( l $.l O.O.g j l l g s j f f O.<.a.:.;.1.;.O.k s s l ( ( k h k k k k h h ",
"j.L.{. XoX{.].{.=XM.T.`.`.^.+X' { ) W { M.v.2.v.,.>.>.#.k $.l I l l k g g j j g s O.a.S.1.<.1.;.;.$.k s s k l ( k k k k l k k k ",
"j.j.W. X].{.{.{.-XC.M.}.^.E.[.S | { Z q.N.z.7.}.L.' *.*.1.$.l l l k k k O.l h s I S.i.-.1.r.%.*.$.$.O.k h O.#.l l Y l k k k k Y ",
"j.9.L. X].V.{.V.=Xf.d.2X<X<X^.[ e...| N.C.N.|.6XaXL.' *.1.( $.$.( Y O.1.S.$.j h <.S.<.$.;.<.;.:.%.*.( k k O.( #.l Y k k k h k s ",
"0.6.z.$X XV.V.V.n.N 2.7XhXsX~...w.3.w.B.(.N.0XuXuX$Xj.0.%.;.<.+.O.$.1.J.P.F.%.f a.<.1.1.;.%.;.#.$.$.l s s Y ( l k k k l I Y s r ",
"0._ Q. X!.E.$X X/.# S R.eXuX1Xw.w.7.b.m.C.#XfXwX7X7XI.8.y.:.;.-.Y 1.J.a.1.J.O.O.F.S.<.-.;.;.%.%.-.#.O.L L L L +.I k L k j d p r ",
"j.J _.;Xz.z.C.eX/.3 N ) w.R.@X@X(.n.b.m.Z.%XiX<X5XeX!.0.j.r.>.;.$.{.a.1.S.$.Y O.-.1.1.<.<.-.+.+.#.+.+.O.+.+.L U l Y L H h d p r ",
"5.` H.aX.Xq.q.[.R.6 N S { ..z.n.l.w.b.^.#XrXiX5X>XeX].0.x.y.r.:.1.{.i.J.{.*.( O.I :.1.:.-.;.;.-.+.+.+.+.L L L I l L L k h p y y ",
"9.B t.eX7X4XR.E./.C 3 6 E { } W W / ..n.#XwXiXqX&X7X{.k.c.c.p.y.{.y.{.J.F.y.y.>.a.i.1.;.;.-.+.L +.$.%.+.L L L I Y Y L L d y y y ",
"_ 3 W _.1X6XR.0.I.E 5 4 x B ) ) S ) ..b.5X9XrX8X&X4X XC.T.H.J.K.G.>.{.F.S.F.F.h.i.y.1.:.1.-.U I ;.;.-.+.l l L L L L L F a p w p ",
"4.E 4 E 2.) ..{ 3.E n x x x c C M N S f.4X&X&X%X5X4X>X X!.T.H.H.j.K.K.G.K.F.p.y.i.i.1.<.:.%.#.<.;.<.;.O.L P I +.L L F h p w w w ",
"` n V M N S 6 ) ` W b u z x n n ] ) M q.5X+X5X9X5X&X5X$X_.}.).h.L.oX{.F.G.h.h.p.D.D.i.<.$.( +.-.-.;.;.$.O.+.+.O.L F a p p p p p ",
"2.` 4 6 6 N S S W ! x z x n N V C } 6 M.>X[.&XtX>X+X X|.|.:X=Xx.>.x.J.{.j.F.h.1.%.>.1.<.<.:.-.#.$.-.;.$.+.@.+.I k a q w w a a w ",
") C 3 4 5 c n T R R n m m m c N | q.5 m.,X#X>XwX4X[.|.[.-X$XT.q.j.' ,.8.y.p.>.I U #.+.$.$.Y L -.Y Y H l Y #.( +.F d y y y a y a ",
"M M M S ) W A A T R n ~ A A D / | D 4 w.|./.+X9X>X[.@X-X4XE.n.q.j.,.6.=.=.8.p.y.;.I #.;.O.#.;.U l I Y d k Y U *.F h a y a p w w ",
"3 6 x C ) W T A R R A c A A W | e.6 7 7.n.~.+XwX>X+X$X1X6Xl.M.l.j.0.6.*._ *.1.p.y.-.*.#.l %.1.+.Y Y k p r y d Y d a y y w a a w ",
"3 3 x x A J c c n c c v c D { e.e.6 4 N Z ) e./.|.[. X=X<XR.T.l.0.0.8.6.*.( _ ( >.1.%.I #.( I U k s r r r r y * a p y a u u y p ",
"3 x M M G c 5 m &./ ! m 5 5 5 n ) E V V A N S ..q.f.^.=X7X@Xc.k.l.k.6.6.6._ _ B J ( U _ %.Y y y r r r r r s s r y y p y a a p a ",
"3 i x x n e e e z n n v x z z n , n x 5 B x N S S ) l.@X1X$Xk.N.XXQ.7.' =._ _ B Y y Y U d i d r r r r s r r y s p a u a w a a a ",
"5 z z , e < : z e z z z u 2 2 3 x n n 2 x 4 x 6 M N ) c.XX}.v.I.=X@Xq.2.6._ ' Y K d B d > 1 B a r r y y r * r s p y a p a a a F ",
"u z x v e e < z e z z : 2 u 2 x b , b u x u M x 3 N x ` Q.R.M.q.@X|.s.0.q.' ' E B Q Y i i b i u y r r y s s s i y y a p a v G +.",
"2 2 z v u e e z e v e u e u 3 d v y u u u i i b u x 6 S q.Q.`.^.|./.U.q.} 8.9.E 8.4.4.Q B x u u y s y p s i y s i y y y y H U Y ",
"2 u z v v e e v v e e v z y u u v z y u 2 u x b u 2 2 x ) s.v.M.U.M.R.I.k.7.4.9.4.=.&.Q J b x i u i u i b d u a y y F v d P +.F ",
"u u z v v v e e z e e v u u 2 u u > > > e e u 2 e 2 , z T ) 3.e.7.0.q.w.s.2.5.u.4.&.Q E ! T v z 3 1 > > u i e u i B P Y H P P F ",
"u 3 i z v e e v v e e u u u 1 1 > 1 u i b v v i e , z n T S E 5.} 7.7.6.q.d.0.9.%._ K Q &.J z u v 3 2 ; 2 i i J J U U U Y P H h ",
"i 3 u u e e e a e e e e y 1 1 1 > , u b n b v v z e e n T A A W } 7.6.6.z.T.k.4._ E J J T b z z 5 7 < c m 2 x n J J J U ! H F h ",
"i u u u e u e v i e w , 1 1 - > 2 > ; , u e u e e e < z n n V W ] ) ) ' 0.k.t.4.&.Q J d > , z c 5 7 7 5.3.5 2 2 > y b Y +.L d h ",
"B i y 2 u u e v v e > > > 1 > 1 u 4 , , e e z v e z , z z m V W W S ) } 8.9.9.9.4.U J u $ > n v ~ ~ 7 (.`.c x z > n J H P H g h ",
"B i u y u u v u v 2 > > 4 > > 1 ; > > ; e e e z , e e : e z n E V C ' 9.0.0.8.Q 4.Q E v X > J z m < < 2X1Xc 5 2 i Q @.H H k d d ",
"H d u u y u z b v , i > = u 3 > e : : > > 2 , > > > > w e u i x 3 M _ 9.9.` ` _ Q _ _ u % > J u 5 5 m Y.Q.N 6 4 v &.F G P F r l ",
"d a y > e u v b G T % , > 4 1 x e = = u 2 - > 1 > > w * w 1 u 3 i 3 i _ Q J Q ` V J B * % w &.J n m m A ] # - B b P ! P a g k y ",
"b d i w e a G G @.Y.e , - ; - - : = : e 5 - - u w w w > y u u u d 3 i K K C J Q b B u - X y t.4.G 5 5 = 6 x 2 x n n n G d d Y i ",
"F F a e w a G v T d.> , - 2 - > : : < ; 2 ; ; > > e w w i i u i 3 1 B B V b i u i b * * X 1 d.t.{ m c , 3 n C n ; n c x C i i i ",
"F H d w y b b v n v = z , - = u , , < = x z 2 ; e e a a a d i i i 3 i 3 i x 1 x u x u % X * y.9.5.z T %.u > E c . D { D ) M x 1 ",
"d b b i v F G G n , v v u > - , 5 = : < W 5 4 2 u e e a a a d a s 3 i i B b 1 Q n B H - X 2 4.4.{ 6 E 8.b : ! , # 7 D [ D # 4 2 ",
"s y i i v v n b z e T v 5 v v , < , 5 5 { 5 ; 2 > e w w y d b n V B Y Y &.v O 5.5.@.4., X d 4.4.} C K ! a 0 ! m Z ^ ^ X.X.Z < < ",
"* * r y u y e y z e v u , : , , , c A c | c 2 - > > & w e d J Y p.8.=.,.d.n = d.d.t.d.u X b &.5.V ) r.@.a & z @ e.*X'.'.&X#XR ; ",
"1 y e y w e e e e e e e w u v e c c c 5 z e.n - : e w w w J U Q 4.Y ! H J , % , @.! G z $ e Q _ n C P F w $ e ; m.Z.A.^ X.B.8 @ ",
"y y y > e : w e e v G v : : , u , 2 < , z 3.A z e w w w a F F H n v T V J u X $ < e G z X $ v T 3 B T F w $ , x ^ 9 9 ^ ^ 8 8 Z ",
"y 1 e y > * e e , v v e > > e u e z n 4 z { E J v u w w a a b u y d H y a e % X $ ; G c % O v J 2 x F v & $ X / Z.[ o.'.Z.'.e.@ ",
"y u u a y : : v e e e : u a > > , y n - 2 B V x a a a w a e i > > u u : , : : = $ = : = X % ; i c u v v : $ o 3.0XB.3X*XB.3X/ @ ",
"z a v F u : e v v v e > v b > & & > d - 3 x F u u w v q p > e y & : w e v : : = = $ $ $ o X = = z e e e = @   D / / / e./ / | 8 ",
"> > y z e e w e a a w 1 y w * * y a n y v v b e w a a e w & > y e e : e b = = $ = = = = = $ X = % : , % O ;   @ < / ^ / ^ D 7 . ",
"% % = : : : : w > : > w > e y y p i B y u y w w w w q e w : > e F v w w e $ = = $ @ O = = o o = $ : : O + . . o R / R / D D 7 # ",
"> > : $ $ : : = w % & w * u d y > s d y y 1 w w w w 0 e w w e z y a = = e $ : $ $ $ $ = = X $ : : = = = @   @ . @ . o . . .   # "
};
