/* XPM */
static char *rsz_1download_removebg_preview1717177968[] = {
/* columns rows colors chars-per-pixel */
"64 64 231 2 ",
"   c None",
".  c #030101",
"X  c #0E0906",
"o  c #0D0D0C",
"O  c #050406",
"+  c #1A0300",
"@  c #120A03",
"#  c #140C0A",
"$  c #1A0C0E",
"%  c #190A03",
"&  c #13110E",
"*  c #1B140C",
"=  c #191A0C",
"-  c #060A14",
";  c #0A131C",
":  c #0B1316",
">  c #1C1514",
",  c #1B1A14",
"<  c #1C1C1B",
"1  c #141617",
"2  c #0F1200",
"3  c #2A0E0C",
"4  c #3B0F0B",
"5  c #2A130C",
"6  c #21180E",
"7  c #241514",
"8  c #251C16",
"9  c #2A1C14",
"0  c #221D1C",
"q  c #2B1C1A",
"w  c #251718",
"e  c #3D1413",
"r  c #341A17",
"t  c #2E1010",
"y  c #14201C",
"u  c #2C2417",
"i  c #23221C",
"p  c #2C251D",
"a  c #242616",
"s  c #35231B",
"d  c #3C261C",
"f  c #061222",
"g  c #091B2A",
"h  c #161A24",
"j  c #081F36",
"k  c #271D24",
"l  c #311F2D",
"z  c #1F2223",
"x  c #17212C",
"c  c #0D2334",
"v  c #0A233A",
"b  c #0E293B",
"n  c #132D3D",
"m  c #1A2D3A",
"M  c #132635",
"N  c #162934",
"B  c #262422",
"V  c #2C2522",
"C  c #242823",
"Z  c #2B2B24",
"A  c #22242A",
"S  c #2B2C2A",
"D  c #2F232F",
"F  c #332624",
"G  c #352C23",
"H  c #3B2B26",
"J  c #342F2D",
"K  c #39282A",
"L  c #33322A",
"P  c #3C342B",
"I  c #3D3D2D",
"U  c #2B2A34",
"Y  c #322C32",
"T  c #322630",
"R  c #2C333D",
"E  c #263238",
"W  c #343531",
"Q  c #3B3533",
"!  c #3C3A34",
"~  c #343239",
"^  c #3C3B3C",
"/  c #353C3A",
"(  c #2B302A",
")  c #441717",
"_  c #491214",
"`  c #46281E",
"'  c #4E1F23",
"]  c #432E26",
"[  c #432C2A",
"{  c #472A28",
"}  c #582527",
"|  c #47352E",
" . c #462A34",
".. c #453B34",
"X. c #4A3D35",
"o. c #443D3B",
"O. c #473737",
"+. c #543A3C",
"@. c #51362D",
"#. c #632F3D",
"$. c #3D4333",
"%. c #44423D",
"&. c #4C413B",
"*. c #4B483F",
"=. c #534B3F",
"-. c #58413B",
";. c #4D573F",
":. c #182D41",
">. c #1A3649",
",. c #153752",
"<. c #002841",
"1. c #223644",
"2. c #2C3A44",
"3. c #293B49",
"4. c #3B3B41",
"5. c #343D4C",
"6. c #313C40",
"7. c #223D53",
"8. c #293D51",
"9. c #242B40",
"0. c #423E43",
"q. c #4A3947",
"w. c #573249",
"e. c #663A42",
"r. c #733947",
"t. c #1F4258",
"y. c #3D4044",
"u. c #364349",
"i. c #2A4458",
"p. c #3E4B52",
"a. c #3A4855",
"s. c #344B55",
"d. c #36566A",
"f. c #2B4B62",
"g. c #3F6374",
"h. c #454343",
"j. c #4D4540",
"k. c #4B4945",
"l. c #454A4B",
"z. c #4C4B4A",
"x. c #484647",
"c. c #534B45",
"v. c #524C4C",
"b. c #5C4E45",
"n. c #545344",
"m. c #464D53",
"M. c #4B4E52",
"N. c #464A57",
"B. c #4C5054",
"V. c #4B535B",
"C. c #44515A",
"Z. c #565453",
"A. c #53555C",
"S. c #5D5C5C",
"D. c #5A5755",
"F. c #4F5249",
"G. c #6A574D",
"H. c #635C5C",
"J. c #6A5E5B",
"K. c #675B53",
"L. c #7C5659",
"P. c #57605B",
"I. c #63635D",
"U. c #6B625C",
"Y. c #646055",
"T. c #75655A",
"R. c #425363",
"E. c #4B5462",
"W. c #575B63",
"Q. c #435D72",
"!. c #645F62",
"~. c #685F62",
"^. c #5B636B",
"/. c #466178",
"(. c #586B7A",
"). c #646463",
"_. c #6C6262",
"`. c #66696D",
"'. c #746963",
"]. c #726B67",
"[. c #74716A",
"{. c #6C7679",
"}. c #777677",
"|. c #726F72",
" X c #83576C",
".X c #837B76",
"XX c #88726D",
"oX c #8B8977",
"OX c #3C6F8C",
"+X c #4B6983",
"@X c #567284",
"#X c #567B92",
"$X c #4F7896",
"%X c #647C8C",
"&X c #767D86",
"*X c #5C839A",
"=X c #628093",
"-X c #738488",
";X c #5F8BA8",
":X c #6388A4",
">X c #6B91AB",
",X c #6790AC",
"<X c #6D99B4",
"1X c #6899B9",
"2X c #719EB8",
"3X c #7193AC",
"4X c #6AA1BF",
"5X c #78A4BC",
"6X c #6B9FC2",
"7X c #6BA4C4",
"8X c #79A9C6",
"9X c #7BB0D1",
"0X c #8A8787",
"qX c #988C81",
"wX c #9C938C",
"eX c #939286",
"rX c #9C9890",
"tX c #A79C94",
"yX c #A9A29A",
"uX c #B4A79E",
"iX c #AFA7A2",
"pX c #B2ABA5",
"aX c #CABBB3",
"sX c #CAC4B8",
"dX c #D3C5BD",
"fX c #85ABC6",
"gX c #86B1CC",
"hX c #85B5D2",
"jX c #91B0C5",
"kX c #D6CDC5",
"lX c #E5D4CC",
/* pixels */
"                                                                                                                                ",
"                                                                                                                                ",
"                                                                                                                                ",
"                                                                                                                                ",
"                                                                                                                                ",
"                                                                                                                                ",
"                                                                                                                                ",
"                                                                                                                                ",
"                                                                                                                                ",
"                                                          h k M.q.q.                                                            ",
"                                                      - Y  .7  .#. X X                                                          ",
"                                                  f x O.t { } ) _ } e.w.                                                        ",
"                                                f D q r ) e e ) } } r.w.                                                        ",
"                                              M h l t ) ) 4 } ) _ _ #. .                                                        ",
"                                              ; k { e 4 ) e t ) _ e -.l                                                         ",
"                                            9.k K r { t + 3 5 5 r 5 +.D                                                         ",
"                                            h D F 7 @ $ V F r 5 3 3 +.T =X                                                      ",
"                                          /.h k 7 > & h < 0 s ] 9 + { k =X                                                      ",
"                                        8X@XO w F Q x.l.^ Z q r ] s t % N                                                       ",
"                                        3X1.h q.c.F.z.l.B.c.H * ] -.G.9 E t.                                                    ",
"                                      2X7.M V.v.%.z.l.y.h.z.%.| % { XXr M.s.t.                                                  ",
"                                      $Xv C.B.^ x.x.z.B.S.S.Z.*.6 ] T.@.Z.-Xn                                                   ",
"                                      ,.i.R 4.h.h.z.Z.H.^.H.^.I.P 5 @.d k.{.u.d.                                                ",
"                                    <Xv 5.E y.l.x.Z.!.!.!.).).).U.F ` 5 c.&X^.7.                                                ",
"                                    :Xv 5.~ l.x.h.Z.H.H.~.!.D.)._.].T.T.Y.|.{.:.                                                ",
"                                  7X#Xc N.4.0.0.k.H._.~._.~.D.D.D.o.=.G.'.[.-Xn                                                 ",
"                                  6X#Xm N.h.o.z.Q H.J.+.Q F 0 < < V a @ * L D.1.#X                                              ",
"                                  7X:Xv N.4.q.Z.Z.Q 9 q s G o.z.v.k.I I ! C < ; =X                                              ",
"                                  6X>Xc p.$.x.o.$ 7 ..b.| G P p a = a 2 a J ^ ; @X  8.j                                         ",
"                                    <Xn p.m.0.> k j.&.u u P u % p Z ;.a G X V - (.>.E.d.,.                                      ",
"                                    2Xi.$.B.y.@ O.q @ u oXoX-.G =.n.;.2 &.}.].z E a.&XE.7.                                      ",
"                                    8X/.b p.h.< Q X @ d =.=.&.[.I = $.oX[.].h./ 5.&XW.W.n                                       ",
"                                    7X*Xb p.z.> J = . = s G S S L oXsXeXa L / o `.`.5.V.3.                                      ",
"                                      hX>.3.B.V Z * | &.c.rXF.$.. wXkX6 u I.1 z 0XN.N.2.i.                                      ",
"                                      9X*Xc V.A i p H .XX.aXrXeXi eXdXP Y.wX& S 0X{.W.:.+XgX                                    ",
"                                        5Xb 2.V.& W q H O.H X.p K.kXsXyX= k.X I.|.}.E.9.3X7X                                    ",
"                                        8X#Xg 2.R , V H [ + J.qXtX.XU.iXyXJ * D..XZ.R.8.8X                                      ",
"                                          gXQ.x R ~ w K +.O.| lXqXuXtXpXK.8 9 U.|.E.3.+XhX                                      ",
"                                            jX%X5.x Y $ s [ G.dXdXdXkXiX..% | U.v.!.:.:X8X                                      ",
"                                              jX(.; Y Y q 9 6 X.b.&.8 # . F '.'.v.a.i.gX                                        ",
"                                              fX@X; 4.~ @ $ =.u @.u u o # > &.V `.1.+XfX                                        ",
"                                              5XQ.f h o . c.*.%.| &.%.. 7 0X_.J h g >X6X                                        ",
"                                              <X>.C.N.< , I.k.*.n.! I X # Y 0XA.5.7.8X                                          ",
"                                                v E.M.o ( W / L Z L W Z 0 < . ; v t.1X                                          ",
"                                                1.E.W.1 S C %.Q S C C i . / V.1./.1X9X                                          ",
"                                                g 9.D < & 1 Z 1 $.P.W , Q y.(.i.,X8X                                            ",
"                                                :.5.~ h.1 S V B E y z a o W.s.f.1X                                              ",
"                                                      }.# %.W z.; 1 C z O - 7.,X1X                                              ",
"                                                        A S y.o W D.P.h R.d.;X6X                                                ",
"                                                          l./ 1 z E x c g.8X1X                                                  ",
"                                                          E m.; u.    d.,.<X                                                    ",
"                                                                        <.OX                                                    ",
"                                                                                                                                ",
"                                                                                                                                ",
"                                                                                                                                ",
"                                                                                                                                ",
"                                                                                                                                ",
"                                                                                                                                ",
"                                                                                                                                ",
"                                                                                                                                ",
"                                                                                                                                ",
"                                                                                                                                ",
"                                                                                                                                ",
"                                                                                                                                "
};
