/* XPM */
static char *rsz_download_removebg_preview1717092535[] = {
/* columns rows colors chars-per-pixel */
"64 64 236 2 ",
"   c #010001",
".  c #0B0200",
"X  c #040901",
"o  c #0C0904",
"O  c #03040A",
"+  c #09040A",
"@  c #06090B",
"#  c #0B0A0A",
"$  c #130100",
"%  c #1A0300",
"&  c #130A03",
"*  c #1D0B01",
"=  c #170C0A",
"-  c #0C0B12",
";  c #110F10",
":  c #161310",
">  c #1F160D",
",  c #250B00",
"<  c #2A0E00",
"1  c #2B1402",
"2  c #281609",
"3  c #331404",
"4  c #351A04",
"5  c #3B1C05",
"6  c #341B0B",
"7  c #3A1D0A",
"8  c #33170B",
"9  c #371E10",
"0  c #2A1B14",
"q  c #3C2006",
"w  c #3D220C",
"e  c #33220C",
"r  c #2E2319",
"t  c #342214",
"y  c #3D2413",
"u  c #33241B",
"i  c #3A2A1C",
"p  c #38281A",
"a  c #3C301A",
"s  c #3A2B26",
"d  c #3C3229",
"f  c #44250D",
"g  c #49270E",
"h  c #46290E",
"j  c #492A0F",
"k  c #452611",
"l  c #492611",
"z  c #452913",
"x  c #4A2B13",
"c  c #452D1B",
"v  c #4B2D19",
"b  c #472718",
"n  c #4C321A",
"m  c #4B3116",
"M  c #53351C",
"N  c #53341A",
"B  c #4F3012",
"V  c #432D23",
"C  c #443225",
"Z  c #4B3323",
"A  c #473629",
"S  c #523523",
"D  c #533A23",
"F  c #543D2B",
"G  c #5B3D2B",
"H  c #593A26",
"J  c #4C3C33",
"K  c #463C34",
"L  c #523D36",
"P  c #574718",
"I  c #544B11",
"U  c #5D422C",
"Y  c #594528",
"T  c #4B433C",
"R  c #554334",
"E  c #5B4333",
"W  c #5A4C33",
"Q  c #53423A",
"!  c #5B473A",
"~  c #5D4A3C",
"^  c #57493E",
"/  c #5F5426",
"(  c #65472E",
")  c #634533",
"_  c #644C3B",
"`  c #684B36",
"'  c #63513B",
"]  c #6B533D",
"[  c #6A5437",
"{  c #725639",
"}  c #706638",
"|  c #4B4540",
" . c #5D4D42",
".. c #564C46",
"X. c #5D5148",
"o. c #6B5444",
"O. c #6E5B44",
"+. c #65554A",
"@. c #68574A",
"#. c #735646",
"$. c #735B4C",
"%. c #765946",
"&. c #645A53",
"*. c #685C56",
"=. c #624E43",
"-. c #77674C",
";. c #6F655D",
":. c #686158",
">. c #746253",
",. c #7C6454",
"<. c #72655B",
"1. c #7C6C5D",
"2. c #76695B",
"3. c #7C755B",
"4. c #7C6C61",
"5. c #766D63",
"6. c #7C7368",
"7. c #85694B",
"8. c #8B6C5B",
"9. c #8E745E",
"0. c #857559",
"q. c #917654",
"w. c #836F63",
"e. c #8B6D62",
"r. c #867466",
"t. c #8C7366",
"y. c #84746B",
"u. c #897A67",
"i. c #957968",
"p. c #887C74",
"a. c #997E71",
"s. c #8C8467",
"d. c #8B8174",
"f. c #8B837A",
"g. c #9B8575",
"h. c #94857B",
"j. c #9C8B7C",
"k. c #958676",
"l. c #9E826A",
"z. c #A6896E",
"x. c #A38475",
"c. c #A28B7A",
"v. c #AA8C77",
"b. c #A9927C",
"n. c #B4917E",
"m. c #8C8783",
"M. c #9B8C84",
"N. c #9A8781",
"B. c #9D928B",
"V. c #9E9085",
"C. c #9E9A91",
"Z. c #A38E85",
"A. c #A39385",
"S. c #A2948B",
"D. c #AC9B8C",
"F. c #A99889",
"G. c #B29C84",
"H. c #B19C8C",
"J. c #BB9C8C",
"K. c #B69586",
"L. c #A89890",
"P. c #B49E94",
"I. c #B89F93",
"U. c #B9A28D",
"Y. c #ADA39A",
"T. c #AEA093",
"R. c #B3A393",
"E. c #BDA394",
"W. c #B5A69A",
"Q. c #BCA69C",
"!. c #BDAC9D",
"~. c #BFB09D",
"^. c #B9ABA5",
"/. c #BCB2A9",
"(. c #C5A38F",
"). c #C0AB9A",
"_. c #C7A895",
"`. c #D3AD97",
"'. c #CBB39D",
"]. c #D6B79E",
"[. c #E0B39C",
"{. c #C2ACA1",
"}. c #CAAEA3",
"|. c #CCB4A3",
" X c #C7B7AA",
".X c #D5B8A8",
"XX c #CCBDB2",
"oX c #D4BCB1",
"OX c #D9BEB3",
"+X c #E3BBA5",
"@X c #CBC3B9",
"#X c #D7C4B7",
"$X c #DBC3B4",
"%X c #DDCABB",
"&X c #DAC6B8",
"*X c #DFD2BF",
"=X c #E8C4A9",
"-X c #E3C4B5",
";X c #E3CBBC",
":X c #EBCCBC",
">X c #E7C7B5",
",X c #F4CCB5",
"<X c #F7CFBA",
"1X c #EED1BF",
"2X c #F4D1BC",
"3X c #FCD5BD",
"4X c #F7D3B5",
"5X c #F0EBB5",
"6X c #E9E4AF",
"7X c #D9CCC5",
"8X c #DED6C9",
"9X c #ECCEC1",
"0X c #E4D2C3",
"qX c #EAD3C4",
"wX c #EED9CB",
"eX c #F4D3C2",
"rX c #FBD6C3",
"tX c #F4D9C6",
"yX c #FDDAC4",
"uX c #F5D6CA",
"iX c #F4DACC",
"pX c #FDDDCB",
"aX c #E6DAD1",
"sX c #FBDED1",
"dX c #F3DCD6",
"fX c #FEE2CD",
"gX c #FDE0C6",
"hX c #FEE3D3",
"jX c #F9E6D8",
"kX c #FFF5DA",
"lX c #EDE0D8",
"zX c #FFFAE6",
"xX c #FFFBEA",
"cX c #FFF4E6",
"vX c #FFFCF4",
"bX c #FAE9E1",
/* pixels */
"                                    O           O                 O O O   O                                                     ",
"                                                    X       X     X         O                                                   ",
"                                                O   O O   -     @   X   @ o                                                     ",
"                                                  O .   O O . +   .         o                                                   ",
"                                                  . .   . = . . = . .   &                 O O                                   ",
"                                            .   . & . . % . $ $ . . . . . . . &         O     O                                 ",
"                                O O O O   . . . . . R.F.F.b.G.b.H.F.R.D.P.. .                                                   ",
"                                O O O O .     . . H.U ( [ { 7.7.9.] W F R j.. . .         O O                                   ",
"                                O @ O #   . . T.9.`.`.q.7.B 5 { x U ' U.).U.& . . .     +     @                                 ",
"                                X   +   . W.u.>XU.{ ( q.P { 4X4XkX7.{ U O.F.. r.aX. . .   #                                     ",
"                                  .   X A.W O.-.B z.N N { g H v.M 5 4 n 4 y 0.* . 2..   .   #                                   ",
"                                  X X 3.W Y W M [ z.7.( ( B 7 v g k { l.kXzX$.Z r.4.<.h.o .   .                                 ",
"                                . . s.W [ -.kX].[ B g 5 l v l y f 5 S q U ] g.k.! +. .&.h.. .                                   ",
"                                . A.-.' } U.n.Y h f h g S 7 b l h N q x w w Z ' cX$ 0.@.4.S.. .                                 ",
"                                  *.@.>.xXqXn 5 f l f g f f S h x 5 q f x y c 6 F $ $ w.>.4.% .                                 ",
"                                6.. S.$ . D 7 v l B q h h x q h h x x z z z f z y c $ . D.Q D..                                 ",
"            O   X     O O .   d.. vXV i F q S w h l x h f g h h k g l k h z k z z w Y y y XX>.$ .       O O   O                 ",
"        O         X     O . 2.. + C =.' c w w h l k l l f h h h g z l h l g z g z c y b.j.-.~ $ . & #   O   -                   ",
"          O O     X     +   . 0X+.<.r.C a m q m k f l l g f f h z g k l h g h z z z 4 c < 1 g.r..       O @   @             O   ",
"          O     X X   O O . 1.a J o.i 1 q q n f k l l b l f h f l k g k g h l k x q z z $ $ j.#X4.p.o   ;                   O   ",
"        O O     X         o 3.e 2 p a z w h z f l v k k k f c k h h g h g g l g z x z 1 E 8 b xX. .                             ",
"          O       X   O +   . kXE o.>.y n n q z l b 7 k 7 7 c k z g g h g g l z z w x c 9 $.a.. >.6.. X     X O             O   ",
"          O O   X     + + . s.Y e 1 Z w f q j h k l 7 Z v 6 b k k g h g g g l k x w l y 8 b _ V p k..   X X   X               O ",
"                            . 0.$ $ c c f h j f l b k G G y b b k g f h g g l l l l b k b % % _ ~..   .     X                   ",
"        O             O   . & -.U.|.w w z h f l h k 3 Z.8.2 9 b b q b f z g x g l f b l b sXsX$.cXj..       X                   ",
"            O       O O o . 6X/ [ @.c w f f f h v l S -Xe.8 V y f l v x h x l g f v w l y %.) ) u.u.o . X X   #                 ",
"                          & . I ' F v w f x l f l 8 %.pXK.8 b 8 y z w k f v f l l h l v 5 ) G G iX& &   .                   O   ",
"      X     O         O     5XI n E w z h l h x b l a.:X9X_ 8 S Z w z z f k k l h g z z w H b S J.. .     X O                   ",
"O           O   O     O     5XI Y =.9 b z x h k l 7 K.Q.uXa., ) ,.6 v c c q k k f h h x f H v D H.* . .   O O O                 ",
"O                   O     & o I D D y z z z x f l G .X+XuXOXl #.).1 y y k y b f f f z m 5 ` U Y G.. . .                         ",
"O O               O O O o . 6XI Y +.y z f 5 v v 3 8.+X9XuXuX) #.qX6 E F 4 y z f q m f f q %.( ( $ % .   . @ O O                 ",
"              O           . . } zXcXy 6 x z n k 3 _.dX9XuXdXe.i.:XZ c.g.t 6 6 x q w z w h gXyX] F.. & .     O   O               ",
"                +   .     o   0.$ $ c 6 y n y 4 >.XXXXXXiXhXK.`.2X] oXdXy.9 Z b 4 1 i p p . % 9..                               ",
"            O O         &   . /.0 t 6 y x w 1 +.N.Y.L.L.H.>X+X,XrX(.P.N.^.Z.c.I.b.,.p u p % < 9.                                ",
"            O       . .   .   &.J $ $ y 6 c 0X0X7XaX/.XX#X9XeXeXeX9X&X7X^.lX0X$XxXj.0 d T A ( ,..                               ",
"        O       . +     o   . f.. s 2 p e p #XlXXXp.p.y.Z.-XuX:X9XuXS.&.6.:.!.iXOX4.0 r . $ x.e.                                ",
"              O .     . o   o d.K K $ . =.t 4.jXM.B.M.p.N.I.sXsXjX~.d.C.m.Y.B.%X Xi V ..Q V J.Z..                               ",
"                O       .     . 5.X.cXxXp.D.4.A.^.7XB.P.wXQ.Q.I.'.V.8X@XC./.W.W.A.y.L.J s L e.%                                 ",
"            O     X     o o   . . 6.2.+. .W.XX5.XXZ.L.L.oX}.I.&X XR.@XF.S.L.0Xr.^.#XN.% $ V {.$ .                               ",
"                .     .     o .   <.C r C j.{.&X XbXOXOXsX}.>XsXwX~.wX*X%XwX*X XqXP.4.$ $ @.Q..                                 ",
"                                o u.R . & >.A.qXE.;XhXpX:X(.tXeXtX'._.fXfXtXJ.9XoXw.~ A R k.. .                                 ",
"                                . d.k.u . $ ~ iX>Xn.].J.K.>X2XrX2X2X(._.(.K.|.hXR.9 * ,.c j.  &                                 ",
"                                o $ i i Q C E '.pX3X`.+X3XpXpX:XrXrXyX[.+X,XeXsXg.$ $ A 3.:.o                                   ",
"                                .   5.r C $ $ _.2X3X3X3X,X,X2XfXpX+X3XyX3X<XuX9Xt.$ zX' ' d.  X                                 ",
"                          O     .   . f.T . $ a.hX,X4X4XgX].i.U.x.n.3X4X,XyX1X9X$.W. Xo.D..                                     ",
"                                  .   . | vXvX,.>X3X3X3X4XyXfXb.(.kX<X4X3X<XsX{.~ +.>.8.$     O                                 ",
"                                  .     :.:.&._ .XyX4X3X=X.X:XhXlXuX_.=X3X2XiX^.0 % Z u.$ .   @                                 ",
"                        O         X   O m.s * $ i.fX4X3X=X(.g.c.g.c.(.4X3XrX9X .$ . V D..   O                                   ",
"                                    .   ;.T ! , k v.hX2XrXuX1X.X.X2XfX2X3X2Xo., $ 2 ..p.+ .   O                                 ",
"                                      . <.. t % D 3 i.pX:XpXrX(.'.:XeX2XrX8.< $ 6 h.A P.  X X                                   ",
"                                @       . ^ R c K.e.7 8.sXeX9XiX:XtXuX>X#., % z >.$  ..       O                                 ",
"                                  .   :   p.L C A S % 2 #.-XjXuXiXiX-Xo., $ 8 o.u.L $ &   :                                     ",
"                                  O o   . . y.J V E % $ , C H.%X;XQ.E $ $ 1 ,.<. .P.        O                                   ",
"                                      #     . *.^ ^ =., . , 2 Q +.u $ . 2 W.P. .y.. . . . .   O                                 ",
"                                O O     o   . . ;.=.bXvX* . $ . . . . 2 . .  .M.. . =   +   O                                   ",
"                                .   @ +     . . .   &.. * 0 u Y.vXT > o . &.    . o .       O                                   ",
"                                  O             . . . 5...&.:.T T ..T T &.. o   .                                               ",
"                                O                     =     & .   .     :   .       .   .   O                                   ",
"                                O                 &         .     o         . X             O                                   ",
"                                  O                 X   . .                                                                     ",
"                                                O   X     .   X +   O     X . O                                                 ",
"                                    O   O             X         +   X                                                           ",
"                                      O         O     @             O   @   O     O                                             ",
"                                                  O     .         @         O                                                   "
};
