/* XPM */
static char *rsz_11ads__z_tasar__m1717179620[] = {
/* columns rows colors chars-per-pixel */
"64 64 114 2 ",
"   c #5F4129",
".  c #5F4E3A",
"X  c #634529",
"o  c #63482D",
"O  c #684A2E",
"+  c #674931",
"@  c #6C4C33",
"#  c #6E5034",
"$  c #66533C",
"%  c #72553C",
"&  c #795B3F",
"*  c #6C5C45",
"=  c #6D5C48",
"-  c #755D44",
";  c #7B5E42",
":  c #7C5D48",
">  c #74634D",
",  c #7C624A",
"<  c #766450",
"1  c #7A6952",
"2  c #816246",
"3  c #83644B",
"4  c #856A4E",
"5  c #846550",
"6  c #836B52",
"7  c #8B6E52",
"8  c #8C7256",
"9  c #85725C",
"0  c #8C755C",
"q  c #907155",
"w  c #907856",
"e  c #92775A",
"r  c #937A5D",
"t  c #877561",
"y  c #897761",
"u  c #8C7A64",
"i  c #8D7C6A",
"p  c #937D64",
"a  c #9A7E62",
"s  c #927F6C",
"d  c #917F71",
"f  c #8F806B",
"g  c #928066",
"h  c #9C8265",
"j  c #95836C",
"k  c #9B866C",
"l  c #9C896C",
"z  c #968571",
"x  c #998771",
"c  c #978875",
"v  c #9D8B74",
"b  c #9D8C79",
"n  c #A1856B",
"m  c #A28A6D",
"M  c #A18770",
"N  c #A38D74",
"B  c #AA8D71",
"V  c #A18F7B",
"C  c #A39176",
"Z  c #AC9274",
"A  c #A4927C",
"S  c #AA957C",
"D  c #AB987E",
"F  c #B09577",
"G  c #B1977B",
"H  c #B39B7D",
"J  c #A28F80",
"K  c #A59482",
"L  c #A99783",
"P  c #A79985",
"I  c #AC9B85",
"U  c #AD9D89",
"Y  c #B29D84",
"T  c #B99E81",
"R  c #B19F8A",
"E  c #B29F90",
"W  c #AFA08C",
"Q  c #B3A186",
"!  c #BAA285",
"~  c #B4A38C",
"^  c #BAA58C",
"/  c #BBA98D",
"(  c #B6A591",
")  c #B9A792",
"_  c #B7A894",
"`  c #BBAA94",
"'  c #BEAD99",
"]  c #BFB197",
"[  c #BFB09C",
"{  c #C0A78C",
"}  c #C3AA8D",
"|  c #C2AD94",
" . c #C8AD90",
".. c #C0AF9A",
"X. c #C3B096",
"o. c #C9B195",
"O. c #C3B39C",
"+. c #C9B69D",
"@. c #CBB89F",
"#. c #C6B5A1",
"$. c #C8B7A2",
"%. c #C7B8A4",
"&. c #CBBAA4",
"*. c #CEBDA9",
"=. c #D1BDA5",
"-. c #D0BFAA",
";. c #CEC0A6",
":. c #CFC0AD",
">. c #D2C0A7",
",. c #D2C2AB",
"<. c #D5C5B1",
"1. c #D8C7B2",
"2. c #DACAB4",
"3. c #DFCFB8",
/* pixels */
"X # % 4 : 8 s k N S S S S Y T T ^ T T Y R { ) T Y Y Y R | Y S R +.) ` ) ) D W W ^ _ ( ' ` U ~ U I Q D C C A A A N v k x N p k 6 ",
"O ; 4 0 p a S Y { E } @.=. .| ..o.@.-.=...{ {  .) +.=.=.=.| T R v Y ] ~ ~ ] &.;.' ' _ ' ..' $.&.@.X.] +.X.` ~ ^ R D N p k x s p ",
"- 3 4 8 a Y ^ o.o.o.$.-.=.@.@.=.=.=.=.+.+.=.-.=.=.@. .Y S Y | X.' @.@.W W A Q O.<.,.*.1.*.' ' &.;.;.>.O.^ ` ' U 9 1 x Y D u $ n ",
"4 4 6 r S | ..$.$.=.=.+.@.@.=.=.-.{ ` =.1.=.@.=.+...+.$.$.=.=.| | &.:.$.,.[ ] X.I ` ` ' &.1.<.( ~ X.;.@.` +.( i > $ 9 L ^ I , 9 ",
"6 6 a S | =.+.$.*.;.*.*.=.-.+.| O.=.1.=.| ^ ..-.-.o.....| R R A ~ O.] I ] ;.:.&.<.,.O...' O.*.-.;.] ] %.;.:.[ b = . > I ) | I x ",
"8 6 N Y ` ..$.*.+.+.*.,.=.o.' +.$.&...' O.,.&.( E L R $.$.....$./ @.&.` @.] [ ` ) ..$.1.*._ ` ..;.@.#.] ' O.%.#.t 9 z *.+.) +.Q ",
"p 9 Y S S ` -.-.' [ %.&.#.` ' $.( ( $.2.<.' _ *.=.....$.-.$...-.] ` ` ) ] _ X.$.$.<.#.E ' 1.1.E W ] ;.$.[ [ #.#.*.*.#.#.[ +.*.A ",
"p 0 ~ S S ..<.$.:.%.[ [ &.*.O.Q $.-.*._ ( #.&.' $...` $.2.-.$.-.;.;.:.@.;.:.;.` ( ..O.%...' $.%.W W ` :.:.O.' %.%.%.$.$.&._ ' Q ",
"p N R K U %.*.*.:.%.[ :.:._ _ %.2.O.#.] [ :.#.%.<.#.' %.,.:.$.O.&.+.&.` &.&._ ] O.( ) &...R ` U %.%.%.E [ *.%.E %.c d ) ....X.L ",
"d N ..R K %.-.:.:._ %.<.W [ :.<.( #.[ #.[ #.<.%.,.:.*.%.%.#.#.#.] ] :.] ;.&.` X.$._ [ &.` _ _ ' E ' %.[ #.*.%.[ ( _ E ` ..^ ^ Q ",
"B N #.Y z #.<.%._ :.:.P %.:.%.[ ' ' ' >.:.[ *.%.[ *.%.O.] #.&.&.] X.;.[ &.;.$.,.#.` &.$.O.' _ *.[ E [ %._ P E -.' %.%.#.` ) ` I ",
"V N O.U b %.*._ %.<.P %.<.[ c _ :.' &.:.*.&.' &.*.*.*.O.[ %.$.[ X.O.;.' %.#.@.,.] ` &.[ *._ ' $.*._ E E J d J O.%._ _ E g v / A ",
"B B $.+.#.<.[ [ 2.P %.:._ J ] _ ] +.1.$.] >.*.$.:.&.&.&.*.&.&.O.X.&.:.X.;.O.` [ ` O.' O.*.' ' ..E _ E J M J L E ..` | V > 0 / Y ",
"L L +.-.>.$.' <.W P :.] b :.] %.' >.&.&.&.*.2.+.O.O.@.:.;.@.+.&.X.&.&.X.:.$.O.@.O.:.W %.' ' ' ..[ [ E J V E E E L $.$.Y g C / Q ",
"L L | =.[ ' %.%.K W _ D %.] W ,.=.&.X.&.;.@.>.O.@.O.&.;.@.X.' +.O.;.&.] ;.$.&.;.&.;.` +.' O.' ' %.#.[ E E R ) $.L E | ..Q ^ } C ",
"F Y o.=.` #.<.P _ %.A _ W P ,.[ @.O.,.O.` +.X.@.&.@.&.>.,.>.&.;.O.:.;.&.:.X.[ ] %.` :.` *.' ' ' ( #.%.[ E E E E O.V Y =.Q Q +.Y ",
"d T +.) | -...E #._ O._ &.*.@.+.W &.] &.@.~ [ O.$.] &.%.@.$.] ,.;.@.` _ ` ` X.[ ' #.$.#..._ ) O.' ....' _ ( R U ' ' K ( ..U O.L ",
"V B $.T ..-.K ..O.[ [ ' &.&.@./ W O.:.O._ ] ) ) X.Q W ` ] @.:.O./ W ( I _ ] @.` &.$._ ' ( ' *.I _ ..O.+.#.' U J E ' E E %.( ) R ",
"B B ` { $.O.V $.' [ ` O.>.&.,.@.' ] ,.,.&.O.] X.W W ` ;.[ O.<.` ~ ] @.j W @.;.O.O.' <.R I ..R $.~ Q Q ` ' ' _ U K U E P ` ) U L ",
"d G L ..$.R ) #.' _ _ %.&.[ &.,.X.$.[ >.@._ &.` _ @.;.;.] O.<.;.~ ] _ ~ ;.W P &.+.I ..$._ ( ( ` D I ~ ' #.#.( J E K P E K ) ` b ",
"k k D +.` Y #...' ' $.%.` _ ^ @.O.,.] ] ( ] ,.I @.;.:.@.;.,.] ] Q ( A ] @.` ` X.` ` _ ` -.( z ' ] ] [ ] #.[ E K E U U W A A ' K ",
"M p | | S R ' _ W [ ,.%.` &.' +.;.%.X.~ _ ;.;.] @.,.<.&.3.<.W C / g > @.[ ~ :.,.Q P #._ ) ' V _ ;.;.X.( ~ _ ' _ K ( _ b U i ~ U ",
"k p | ` V R ( ( W ` #.>.&.<.*.>.$._ ~ ( X.O.[ &.<.2.,.&.;.@.W W v j f ] ~ [ ,.Q I ..I U _ _ ' U ` X.O.` ~ ( ' ' P ( _ J ~ b P ) ",
"p v Y | I L ( ( _ ( I :.;.@.+.&.] %.W ` O._ @.` ;.:.&.;.:.O.@.( W ] ] ] O.O.O.] _ ( &...b L _ ~ ~ ] O.~ U W ' O.R J K U A ( V I ",
"p k ^ L ( ) ~ ( #.' ' &.&.$.@.;.@.] %.` &.&.@.;.` ] 2.) ;.] ] _ v j g D @.] _ ~ W &.#.#.L b ( %.W I ] O./ D _ @.' P L U L ' K J ",
"p S ^ D ^ ) ( _ O...#.*.&.O.` ] ) ` $.] @.&.&.<.<.] [ ] P C _ [ Q j g W _ W ~ W Q O.` O.~ U U ..~ W O.#._ P _ ] ` U ~ ( U U J L ",
"p Y Q S R R E _ *.*.-.1.,.>.&.@.P ~ X._ [ O.;.,.;.;.` ) v A ] W D g ] ~ W A * C U ` ' #.[ ( A ` W A ' #._ W ] _ ..U ) _ _ P K P ",
"0 ^ R C ^ I ) _ #.%.%.*.&.&.+.X.I ] #.X.&.,.;.,.&.] ~ I ;.A D W ] f _ _ D _ C c V ~ ' %.*.' c U ~ A ] #./ Q @.] #.U U I ' K P J ",
"0 T Q L | ~ ) ` #.%.$.#.O.O.X.` I ] @.;.:.<.,.,.$.P ~ C $.A A A j C W W ~ / c 1 j U ` O.$.#.c K ` U _ ( D A ( W W A V b E c K d ",
"y I ^ Y ..~ ( _ *.<.<.<.>.*.&.O.I ] @.,.:.;.;.:._ I @.~ D W Q z _ v D v f / ~ f j ~ #.%.#...U ' _ U U K C c D A C A K b U d J i ",
"p M Q I ` ~ R ( [ #.%.&.*.$.O.X.` ;.O.1.,.;.%.@.] I ` ;.v C P v 1 l f A c f _ D j U _ $...' ' %.( U L V W Q Q W I W K U P i J d ",
"p k ^ Y ^ ~ U ( ( W ~ _ ` ( ^ ) O.%.) %.@.] ~ W W X.~ W f c W j j 9 f C j v / W v b x _ #.' _ U U P A b ) ] / ~ ] ` J E U i J c ",
"l C W Q ^ D I ~ ` O.:.] ;.O.] X.) %.O.<.,.*.X.~ _ ] A W W ~ D l C D j v v c ] A y I Q +.O.$...L I I V V ' ` ^ ` | ) I ~ R I K t ",
"l / Q A I R ' ' &.:.[ @.:.:.X.] U ( ' *.*.,.&.;.W @.A W %.j Q D 9 z g z C A @.c s R ) #.O.O...Y ) _ ` ~ ' I R ' L L V I I L L s ",
"g / ~ D Y ) ..| ( O.W X.@.O.X.X.R R #.*.*.<.&.<.] ~ / v ] W W ~ W D c z Q ] _ 9 D R ` ' ..^ ) R ) R ) R ) Y ( | L U A A S V b z ",
"g ] Q ^ ` Q I ) U ' W O.;.O.&.;.' _ #.*.,.<.&.;.;.D %.v j @.~ Q C f _ C A ( A v ~ ) X.+.-...` I L L R R ~ R ~ L Y ^ R I I V c v ",
"l / Q / ' ^ R $.' &.' *.2.$.;.%.' ' ( #.<.:.,.&.;._ ~ W x W Q W j j ' ( ( I D ` I K ) O.1.$.) D v I ' Q Q R R v L I I I R L V S ",
"g Q ~ W ` ' E ..` &.%.%.,.[ @.O.O...R ' :.%.2.%.%.] A / @.c C _ _ ~ Y ^ _ D _ [ R C L I ` ' I L L R ) A I ) ` R R I I I I A v K ",
"j D ] W ( ^ V V U #.*.*.&.O.$.<.O.O.#.' %.;.,.;.] A D _ 3.( C ] ~ ) ~ A A b / &.&.) ~ U I ) ~ ' R ^ ~ V ~ ` ....` I ~ R A V v C ",
"j v ] H ~ ) V V P ' ' O.@.,.$.,._ ' -.' ;.:.;.[ W v / ] ;.@._ ] +.' >.A I =.O.*.O.O.+...^ | Q ..Y | #.) ' I U _ ( A R I b v A Y ",
"j C ) Q W I A Q J %.*.' ' %.O.` ' ( L -.O.%.#.#.W ] ~ ) 2.;.@.@.) Y R ..$.,...$.+.R ' ^ ) ' +.R ) Y E ..E ' ' E V V K v v v R S ",
"l g / ] ~ ` z b E U E #.$.#.*.O.-.( K #.<.2._ U _ &.;.*.<.O.>.,.$.j V $.+.-.O.' $.$.) v R ` ^ K L L Y ) #.L b L b V U U V N ` x ",
"v 0 W ] R ..K b J E ' %.O...-.-.O.E O.#.$.&.~ R X.O.$.;.;.&.<.>.<.v I 1.$.=.&.| ` ' R V I ~ Y L M T +.&.$.L J ..c J L ` A Y | p ",
"l j v ( ` R _ U J ' _ E %.-.' ..' %.*.` #...) $.,.;.&.$.,.;.>.O.&.^ ~ +...$...) I b Y ^ I I ~ L I L E ........L J J v R x ` I j ",
"j v L R #.I E L J ( ' U O.$.P ' *.( *.#.b V -.U O.;.;.] &.$.*.,.-...~ | ( O...I R A ~ O.~ Q Q A ' ^ ` ` ) | ..U E J x A A ` V C ",
"l k | R ..( L E E E *.E P ..' #.~ &.( A U b I Q ( X.$._ O.+.@.1.,.` ..=.R ) &.^ ` O.( Q ) #.~ I +.Q l v E E J b _ V P x ' Q A D ",
"x j ` E E $.U ..#.#.O._ E ..*.' #.O.U b ' [ ` ~ $.O.;.` ] [ X.+.$.' ..=.L I ..` ^ +.( R ) &.| ^ / ] ^ I U K K E E U U I ] D Q D ",
"l x R ..Y $.E E %.%.E %.O.b E *.%.( #.' K ` &.O._ I X.~ W ` $.O.X.=.` ` ~ Q ) ~ I R ' +.R ..$...~ ` O.^ v J U K K E A ` D A / C ",
"k p ~ ^ X.Q ` ` ' _ %.P [ [ K %._ %.#.[ W U &.-.O...` M ` S ` I ~ / / ~ ` I ^ I Q | ..' -.' ' O.O.] I P i U U J E L { ..S Y ~ B ",
"p a Y ` X.' ` ` U %.#.#.K *.' J [ %.%._ E _ $.%...$...^ +.| o.| / ] X.X.+.` O.] I ` ` ) #.' ' ' X.` W f J J c E K _ E D Y ^ D N ",
"a k G  .] X./ _ ' W :.' [ U *.E P <.[ _ [ ' %.%...$.$.$.&.+.$.&.@.&.@.X./ Q ' [ ` ..) ` ` ....' ] W P P L b V ( U #.E L ` } D Z ",
"k n Y ` X.X.] / O.( _ %.E *.E *.[ U %.#._ *.*.[ +.$.O.$.=.X.+.&.O.@.O.~ ~ I ] +.*.X.( .._ O.O._ W W A b U ..` V ..E { | / / Y m ",
"k k ! ! X.O.@.X.] ` $.I [ -.[ E %._ J %.<.' ' %.$.O.#.[ %.' $.O.] $.&.X.[ W [ O.&.( I ' ` ' ' E K V ' d ' ( V ..O.Y  .@.! ! Q l ",
"h k / Q o.X.;.O.[ _ _ [ E _ *.' U [ %.J ( <.' [ $.#.#.[ %.' O.R X.$.%.O.[ ( O.` O.R P ' ( R U J b ~ K ( ( u R $.^ X.X./ / } H m ",
"h M ` ! / / @.O.;.] I &._ K [ -.%.J W %.W P ' _ #.O.' [ ......U [ [ ] ' O.' #.#._ _ ( E E P R K ~ K ( K d -.E R ` o. ./ } } H m ",
"r l ^ / Q X.@.&.&.;.' P #.#.E E *._ W P %.[ c b ( _ ( #._ $.%._ O.O.O.O.*.' [ ~ U ( ( K L U ..E L U K P E ^ } { +./ } } / H Z h ",
"l m H / H X.] X.] @.;.X.] ] X./ V ' *...R U K K A ( U W _ _ #._ _ _ _ [ [ _ E W L E J N ` ..E | M L ` | ` Y X.X.{ {  .H } ! h h ",
"r m H ! H ! Q / / O.@.@.X.] O.X.| P ( *.$.( U R b ( W I P P U I _ W W W _ W U P | | R J U E E V ..) ` Y ^ ^ Q F m 0 H  .Z B Z w ",
"w h G H / / ! } +.;.o.@.=.X.X. .X.$.R S ' =.O.| U ~ U ( #.O.( K P P W W _ _ ( W ..E E E d n ) +.E T R ^ o. .l h G h r H H B r 4 ",
"7 e l Z H }  . .o.X.H Q =.@.+.X.^ ) +...L R O...$.` U ( ( I I ( E _ W _ E U P K E ) +.| S E ..Y R Y ^ | ! S h  .{ { r B H 7 X , ",
"7 7 2 4 m H } } o./ B H o.o.o.o.$.| Y ^ =.^ I ^ / ` O.+.#.' R R L L L L W ) ' O.$.| | o.{ Y S Y ..{ T } ! G w G T F a G B 2 O @ ",
"q 7 & & r F T } o.o.! } o.o. .o. .| +.| Y ^ +.^ ^ Q A z I +.O.` ..' ' ) _ ` | X.{ $.| J Y T E  . .{ T { o. .h 8 a 7 q F n 4 % X ",
"2 q ; 3 h B H ! H } !  . .}  . .! { ! ^ { ^ Y L Y ^ / A I o.' ' ~ _ ` ) ` ' ` ` { E L ! | { ~ { H ! { G F Z F B e a Z B a 7 : 5 ",
"@ 3 2 q n n B B H H H H H H H B Y S N M B N S C L x N C ^ ..I I R ( Q I I R Q Q T E T Y B d M m n h k h h w h w a 7 7 : 2 2 : - "
};
