/* XPM */
static char *rsz_1removephotos_removed_background1717091860[] = {
/* columns rows colors chars-per-pixel */
"64 64 251 2 ",
"   c #3B3519",
".  c #3B302C",
"X  c #4C3439",
"o  c #573A39",
"O  c #4E312D",
"+  c #663B38",
"@  c #4B2111",
"#  c #4B4B0C",
"$  c #45450C",
"%  c #51520F",
"&  c #434312",
"*  c #4B4C14",
"=  c #594C1E",
"-  c #535313",
";  c #54541B",
":  c #5A5B1B",
">  c #595819",
",  c #4D5114",
"<  c #625C1D",
"1  c #61571C",
"2  c #5E611D",
"3  c #62641D",
"4  c #66681D",
"5  c #4B4B2B",
"6  c #594C27",
"7  c #5C5B22",
"8  c #585528",
"9  c #574636",
"0  c #595737",
"q  c #4D4E33",
"w  c #645C23",
"e  c #665B25",
"r  c #66423A",
"t  c #635B36",
"y  c #784539",
"u  c #5E612B",
"i  c #636223",
"p  c #6C6225",
"a  c #666924",
"s  c #696B24",
"d  c #656529",
"f  c #6B642B",
"g  c #6C6C2B",
"h  c #65692B",
"j  c #736C2B",
"k  c #726928",
"l  c #6D722A",
"z  c #73742C",
"x  c #79772C",
"c  c #636334",
"v  c #64643B",
"b  c #6C643C",
"n  c #6B6C3C",
"m  c #696736",
"M  c #796E34",
"N  c #746936",
"B  c #6D7235",
"V  c #747432",
"C  c #7C7334",
"Z  c #7C7B33",
"A  c #77773B",
"S  c #4D394A",
"D  c #5B3D43",
"F  c #563B46",
"G  c #503A52",
"H  c #633D46",
"J  c #5D4244",
"K  c #5B4848",
"L  c #5D524A",
"P  c #595547",
"I  c #5C4657",
"U  c #59544D",
"Y  c #634443",
"T  c #63444A",
"R  c #644A4C",
"E  c #6B4C4D",
"W  c #694746",
"Q  c #754A48",
"!  c #62534D",
"~  c #655948",
"^  c #79534D",
"/  c #644C54",
"(  c #6A4B52",
")  c #674857",
"_  c #734C57",
"`  c #6B5454",
"'  c #6B5B5A",
"]  c #675756",
"[  c #725254",
"{  c #785859",
"}  c #5E604A",
"|  c #686746",
" . c #736B47",
".. c #747341",
"X. c #7B7B44",
"o. c #7A7549",
"O. c #6A6456",
"+. c #766958",
"@. c #7B7456",
"#. c #5C4A64",
"$. c #664D62",
"%. c #6A5666",
"&. c #745C63",
"*. c #775867",
"=. c #775C72",
"-. c #6C5F73",
";. c #786567",
":. c #7C7465",
">. c #796676",
",. c #71676F",
"<. c #837B36",
"1. c #817639",
"2. c #837B3A",
"3. c #847937",
"4. c #835B58",
"5. c #885747",
"6. c #867C47",
"7. c #88665C",
"8. c #84735C",
"9. c #847959",
"0. c #917854",
"q. c #835C64",
"w. c #875D71",
"e. c #8D6464",
"r. c #876768",
"t. c #916768",
"y. c #867966",
"u. c #93756B",
"i. c #876A76",
"p. c #956D76",
"a. c #887477",
"s. c #977878",
"d. c #A57B73",
"f. c #BB7E5F",
"g. c #7E822E",
"h. c #7E8035",
"j. c #7F8043",
"k. c #848532",
"l. c #8C8A3B",
"z. c #89863A",
"x. c #908B3B",
"c. c #878647",
"v. c #928A47",
"b. c #939248",
"n. c #8B8756",
"m. c #938454",
"M. c #968A59",
"N. c #949354",
"B. c #99975B",
"V. c #8E914E",
"C. c #898267",
"Z. c #968A67",
"A. c #9B9765",
"S. c #998576",
"D. c #918C77",
"F. c #A3976B",
"G. c #A5857C",
"H. c #A89A77",
"J. c #AF896F",
"K. c #ABA571",
"L. c #A19A56",
"P. c #CA8C6E",
"I. c #C9865B",
"U. c #7C6D82",
"Y. c #8A7687",
"T. c #967A87",
"R. c #90768C",
"E. c #A47C8A",
"W. c #9A8489",
"Q. c #9A8798",
"!. c #91878F",
"~. c #A78987",
"^. c #A9968B",
"/. c #B5958C",
"(. c #A68A95",
"). c #AA9497",
"_. c #B49997",
"`. c #B38C8F",
"'. c #B6A59B",
"]. c #B4A78C",
"[. c #A58DA3",
"{. c #A995A5",
"}. c #B499A5",
"|. c #B29DB7",
" X c #AE9BB6",
".X c #B8A4A7",
"XX c #BAA8B6",
"oX c #BDB3A9",
"OX c #9D89A5",
"+X c #C4B395",
"@X c #C5ABB3",
"#X c #C7B5BB",
"$X c #CCAFB0",
"%X c #D39C8E",
"&X c #D7CABE",
"*X c #E6C4BB",
"=X c #BAA5C6",
"-X c #BEA8D3",
";X c #BEB0D0",
":X c #B59FC6",
">X c #C3ABC7",
",X c #C8B6C8",
"<X c #D4BAC7",
"1X c #C4ACD4",
"2X c #CAB5D7",
"3X c #D6BDD9",
"4X c #E5BCCF",
"5X c #CAB8E0",
"6X c #D6C3C9",
"7X c #DCC3DC",
"8X c #D8C8DA",
"9X c #DED3D4",
"0X c #E5C8D6",
"qX c #E6D5DA",
"wX c #F4D7D8",
"eX c #ECCAD0",
"rX c #DCCCE4",
"tX c #DBC8E2",
"yX c #DDD4EA",
"uX c #DCD3E6",
"iX c #E6CDE4",
"pX c #ECDBE3",
"aX c #EBDCEC",
"sX c #E5D6E7",
"dX c #F2D4E5",
"fX c #F3DDE6",
"gX c #F4DDEA",
"hX c #FADDEB",
"jX c #FADBE6",
"kX c #E9DCF1",
"lX c #F6D4E9",
"zX c #ECE3EC",
"xX c #EBE6E9",
"cX c #F4E5E6",
"vX c #FDE4E6",
"bX c #F2E4EC",
"nX c #FCE4ED",
"mX c #FCECED",
"MX c #F7E9E9",
"NX c #FFF1EF",
"BX c #EEE3F2",
"VX c #EDECF2",
"CX c #EFEDF8",
"ZX c #F2E5F2",
"AX c #FBE6F2",
"SX c #F5EAF4",
"DX c #FCEBF2",
"FX c #F7ECFA",
"GX c #FFF2F2",
"HX c #F9F1FC",
"JX c #F3E2DD",
/* pixels */
"sXuXsXkXBXBXkXsX%./ _ _ ) R.4XlXdXaXhXhXdXdXdXfXfXgXvXnXnXvXhXvXvXnX4Xq._ _ _ @XlXeXiX7X7X7X3X2X2XiX{.-.R.S #.:X5X-X5X-X-X-X:X:X",
"BXaXaXkXkXBXBXBXXX).E.4.R.<XAXtXsXfXlXgXgXgXgXvXhXhXnXnXnXvXvXhXwXjX`.) ) H X w.lXiXiX4X7X7X7X7X3X3X=XR.-.#.G :X5X5X-X-X-X-X:X-X",
"BXZXkXkXkXkXBXSXsX<XhX>XeXhXBXkXpXpXfXfXfXfXgXhXgXnXnXAXAXnXvXvXnXmX4XE.H E.E.E.dXdXiXiX7X7X7X7X3X0X>X X#.#.G :X5X5X-X5X-X-X:X-X",
"kXkXZXZXkXBXxXzXbXW.$X$XeXlXkXlXgXfXgXfXgXjXcXgXgXvXnXAXAXAXnXvXAXjXnXeX}.4X>X4XlXlXiXiX7X7X4X7XiX3X,X[.R.G G  X5X5X-X-X-X=X-X:X",
"zXBXZXZXZXBXzXzXnX@Xw.q.4XFXlXHXDXMXnXvXmXnXnXmXvXDXDXDXDXAXDXnXhXAXlXlX4X4XE.lXlXiXtX7X7X7XtXtX7X3X>XR.E.S #.:X3X2X1X1X2X1X>X=X",
"VXBXgXZXBXFXVXbXcX_.q.q.`.AXHXbXDXmXmXmXDXDXGXDXDXDXGXDXDXDXnXAXFXlXAX4X_ w.}.lXlXiX7X7XtXtXtX5X3X7X>XR.R.#.#.-X5X2X2X1X1X>X|.=X",
"zXVXzXZXZXZXZXbXDX}.t.w.`.nXDXDXNXmXmXmXmXDXGXGXGXDXGXDXDXAXAXAXlXAXlXE._ $.[.lXiXiXrXiXiXrXrXtX7X7X<XE.#.=.G E.7X2X2X1X|.1X[.|.",
"xXBXSXSXBXZXZXbXvX_.p.t._.DXnXGXNXGXGXNXNXmXmXGXDXDXDXDXAXnXnXAXAXgXlXR.Y.Y.R.lXiXkXkXkXkXyXrXyX7X3X7X>X) $.#.R.7X2X,X1XOX=XR.[.",
"VXbXZXSXSXSXmXCXDX_.t.e.`.AXDXGXGXNXNXMXNXNXmXmXmXmXDXmXAXAXAXbXgXgXgX{.=.%.Q.AXsXkXyXyXyXyXyXyX8XiX>X[.Q.G S  X3X2X2X,XU.|.U.U.",
"xXVXSXSXSXmXCXmXmX_.t.t.`.DXDXGXNXNXMXNXMXNXmXMXDXDXAXAXAXnXbXgXZXkXZX[.>.%.Q.kXsXkXyXyXyXyXyXyXrX8X>XU.OXG I OX2X>X1X=X>.{.,.,.",
"xXVXSXSXSXSXmXmXvX^.t.t.`.GXmXGXGXmXmXmXNXmXmXmXDXmXDXDXDXAXgXbXZXkXFX(.Y.$.Q.kXyXyXyXyXyXyXyXrXrX8X;X!.U.I %.Y.<X|.OXR.-.[.-.%.",
"xXVXSXSXDXFXmXmXvX`.e.t.`.mXNXGXmXmXmXmXmXmXmXmXmXbXSXAXAXAXcXbXZXgXaXQ.>.$.OXkXuXyXuXyXyX8XrX8X8XtX,X.X#.$.%.$.[. XY.=.#.a.,.,.",
"CXCXGXHXDXDXSXmXvX`.e.e.~.mXmXGXDXmXmXmXbXmXDXnXAXAXAXDXAXnXgXgXgXaXdXR.=.%.Q.kXuXuXuXuXuX2XtX8XtX8X2X X=.G $.$.R.[.=.=.,.T.>.] ",
"VXCXCXmXFXFXDXNXvXd.e.t.~.vXGXGXGXDXDXDXDXAXmXDXDXAXAXnXAXZXgXaXfXgXiXR.=.$.R.sXuXzXsXyX8X=XsXrXrX8X;X!.[.S ) =.Y.E.Y.Y.,.i.a.' ",
"VXVXHXSXSXDXDXDXvX~.e.t.~.mXNXmXDXDXDXDXDXDXDXDXDXnXbXbXnXgXbXgXgXAXlXY.i.$.R.lXaXkXBXuX;X{.uXrX8XtXXXY.[.S G Y.[.R.R.i.i.T.;.` ",
"xXVXSXSXFXFXGXGXvX`.t.t.E.vXMXcXDXSXSXAXSXDXAXbXAXbXbXbXbXAXbXnXgXgXhXY.=.$.[.ZXaXsXsX8XXX!.8X8X8XyXXX).Y.H $.w.|.=.T.Y.i.T.*.%.",
"xXVXVXVXHXCXHXHXmX`.4.7.~.jXmXZXZXSXSXSXSXSXbXZXzXZXSXxXcXzXzXSXqXpXuXOX-.#.R.CXaX8XfX,XW.Y.>X6X8X,XXX#XI ) =.I R.[.{.R.=.=.=.%.",
"9XJXxXVXCXHXCXGXvX~.7.t.~.jXDXZXZXZXZXVXSXBXSXBXBXxXxXsXzXxXxXBX6XuXVX XU.U.Q.BXaX<X9X}.W.W.XXoX@XoX}.}.T.G G =.E.).[.i.$.=.=.=.",
"xXMXVXVXCXCXSXmXvXJ.7.t.~.cXnXZXZXbXzXbXzXbXzXZXZXBXxXaXzXVXSXSXXX,XzX!.U.-.!.kXaXXX,XW.Y.W.(.!.).XX).!.@XG S i.R.(.).p._ *.w.=.",
"xXVXVXVXCXSXZXGXwXS.4.t.d.fXSXbXbXVXbXbXbXVXbXZXzXzXaXzXaXkXBXkX.XXXkXY.-.#.U.8X7X)..XW.W.W.W.Y.).XX).T.(.G ) w.i.E.}.~.*.q.w.*.",
"xXxXzXxXCXVXxXMXwX0.4.e.s.jXAXBXcXMXcXMXMXMXzXzXpXaXsXaXyX8XuX6X{..XsX!.U.>.U.XXXXW.).(.(.(.s.W..XXX}.XX$.) =.( p.s./.~.r.e.r.{ ",
"cXxXuXzXGXmXvXJXeXu.5.y.~.jXAXAXcXcXMXMXMXbXbXcXzXpXuXxXuX8X8XXXQ.).XXY.!.Y.>.XX}.(.).).~.).T.).$X[.}.<XH ) *.D W.s.G.u.7.7.7.^ ",
"sXqXpXpXpXqXqXwX*Xt.^ e.s.wXAXhXcXcXcXcXcXcXcXcXcXaXuXxX9X6X6X{.).(.).a.!.a.>.XX_.(.~.E.S.s.s.~.}.~.E.}.) ) ) ` ~.s.u.7.7.7.4.5.",
"pXgXcXqX#X'._.+X*X7.^ e.p.eXhXhXjXcXJXfXpXpXpXpXqXxXpXxX6X.XXX).W.^.^.!..XQ.a.#X(.~.~.u.S.s.s.s.~.T.i.%.%.H S i.s.r.u.r.7. .^ 7.",
"XX<X@X(.~._._._./.t.^ 4.p.lXlXlXdXfXqXqXpXpXqX9XeX9XeX&X.X'.).'.).].).:.;.&.;.^.).`.^.G.G.G.G.~.s.s.i.a.R.X X F a.s.u.r.u.7.W ^ ",
"p.(.W.p.a.s.d.d.d.4.5.q.p.$X$X$X8XhXfXhXwX6X0X6X#X@X.X'..X_._.).^.^.).;.;.' ] W./.~.~./.G.G.G.G.^.S.).}.w.. . X a.r.r.e.{ ^ W Q ",
"r.i.p.a.p.p.d.t.t.Q _ q.t.E.E.E.}.<X3XdXwX<XeXeX.X'._.'.'.]._.].^.~.^.y.W.a.] W.~.S.G././.J.G.G.W.u.s.i.F X . F ;._ [ Y + H ^ W ",
"*.*.r.i.q.r.p.q.4.H _ 4.q.t.s.p.E.}.}.#X0X6X9X#X_._.'.'.'.^.^.^.^.~.^.;.a.;.! ^.G.s.~./././.G.G.u.s.q.$._ H X X D W W o + 5.H Q ",
"D D ) { _ [ { q._ H ( T { w.s.s.T.T.W.)..X@X}._.)._._.'._././.^._.^.).:.W.!.! ;.W.s.G.~.G.s.t.e.E { E { r.H O S H + + + Q + + + ",
"F F D K Y T ) _ H H ) T _ { t.r.i.r.p.a.s.E.s.W.).~.~.~.~.^.~.~.~.W.W.&.&.,.] ;.r.{ 4.4.^ E E Q W Y Y [ *.T H _ _ H Q 5.y 5.y y ",
"X F o 9 H o D H ) ) T ) E E [ E [ [ *.r.r.;.{ r.r.r.+.+.;.r.:.;.;.;.,.&.>.>.%.) ( T Y Y W H W H Q W E _ _ w._ _ Q d.f.+ 5.P.f.5.",
"O 9 o o J o o D F D F D T D Y Y Y E W [ { E [ ` ( ( ( ` E E R R K K K / ;.I ) / ) ( _ _ _ 4.4.*.q.e.q.q.p.(.q._.q.`.e.@ y P.%X%X",
"r r r y o W D Y o E T J T T D T T T ( [ ` E _ { %.) *.E { [ ) ) / / S ! &.' ! / { a.;.*.T.p.T.t.}.p.O X r.$X>.@X&.(.t.H 5.f.P.I.",
"9 r r r r r W W T ` T o J T o J D D J W Y J ( / ) ) ( E W K ) I G K X L / I K / *.a.r.) }.p.(.w.E.E.H H W.).a.).i.T.H O y P.I.I.",
"9 + o o o o o W Y R D X K T K J R R R ! ~ W ! ( *.) ` ` 9 ~ S $.I S S I I K S ) =.Y.*.` }.T.E.T.E.*.) ) .XW.(.>.}.T.H O Q %XI.P.",
"6 O 9 O 9 o J T K ( / ` { ' ` ` ' ] ' ` ` +.O.;.%.%.' u.@.S.U U.$.K S I I I J / *.s.] i.T.(.i.Q.T.X F ( ^.W.@X&.}.R.D o 5.P.f.%X",
"o 9 K K ! K ~ ] / ` ' ' +.;.' ' ' O.&.! O.O.' ,.Q.(.%.;.j.!.,.U.:.O.;.+.~ ~ ' 8.u.S.y.S.8.^.+.s.p.F D o ] ! :./ &.*.D o 4.5.5.5.",
"0 K ! ! ! ! ~ ` L R I ] ] ] ] ' ] ] O.L ] O.' >.iXuX6X:.U.j.!.j.y.y.D.y.~ 6 8.Z.S.F.+XS.8.0.0.r.r.i.O.Y 9 O O Y O Y D o H O + @ ",
"P K 0 K P K P K ! L L ! ! ] O.+.' O.%.U O.' } U.8X;XHX!.j.U.j.U.:.y.C.y.9   @.Z.y.Z.+XC.y.7.8.8.y.a.y.y.y.9.~ 8.E Y r 9 O O + = ",
"P P P L P ! P ! ! L P P L ! ' ] ] ] &.U } O.] U.8XXXVX'.O.!.U.U.y.:.y.y.!   +.y.y.y.8.9.8.9.y.@.y.@.| 8.9.9.Z.8.y. .+.^ 6 6 O   ",
"P P P P L L ~ O.~ O.O.O.O.O.O.+.,.+.:.:.@.y.+.!.HX8XqX'.| j.j.j.+.,.:.+.j.!.j.,.@.O.O.@.@.+.y.@.o.@.o.o.o.6.@.j.9.6.8.o.+.~ b t ",
"9 0 0 0 0 P 0 0 ~ P 0 ~ | O.O.| O.@.9.C.n.C.C.).xX9X#X].j.j.j.j.@.j.C.j.j.j.j.U.j.@.| o.o.+.@. . .....n n n ....b t | b  .t | t ",
"q 0 9 9 0 0 9 0 t  .@.8.8.C.C.y.n.Z.A.F.A.K.F.oXxX&X'.].!.A.A.K.A.A.K.A.B.K.A.A.B.N.V.N.N.n.N.V.n.V.n.n.c.6.j.j.6.....b | b b t ",
"5 9 8 0 t t 0 t t | @.o.@.@.n.C.n.Z.A.B.A.K.A.+XJXxX!.D.K.K.A.B.B.B.B.B.V.B.j.N.V.V.c.n.c.c.c.j.j.j.j.j.X.o.| j.n N n m n n v t ",
"b N b N b b m m n t t t t t t b N o.X.X.c.c.@.'.9X9X^.j.A.V.j.j.N.V.B.N.N.N.j.j.j.j.j.j.X...j.X.j.....B } B c h c c m c c v 0 0 ",
"0.m.0.0.0.m.6.0.m.6.6.o.6.b t t t f t d g m v ^.9X9X{.} ..B ..c j.j.j.j.j.j.h.| j.j.j.X.....n ..o...B | h.| | n n c n v t v 8 8 ",
"m.m.0.m.m.m.0.v.0.m.M.M.0.6.6.b  .o.n  ...n | .XuX5X;X,.} | v c c c ..| j.h.u h.n c v 0 0 0 0 u u u 0 0 0 0 0 0 0 q 8 0 0 n 5 6 ",
"M.M.M.0.M.M.m.m.M.M.M.F.H.K.H.Z.Z.Z.Z.D.F.Z.D.9X9XuXuXOXj.j.| ..} h c u q q q | o.| | | } | } | 0 0 c 0 0 0 } } | q q q 5 P     ",
"+X%X^.Z.].].K.H.J.F.H.K.+X+X+XK.F.H.H.H.+X].+X&X$X6X&XoX'.'.'.^.o.o.j.X.v c ..j.!.j.o.@.@.@.C.D.} ..| 0 } j.!.!.!.} j.U #.U.U . ",
"+X+X+X].+X%XH.H.J.F.F.H.K.J.F.J.M.F.B.Z.K.B.H.+XA.K.H.H.^.].].K.N.N.V.V.c.j.j.n.N.j.o.@...| ..@.c } } } U j.} } } U } q U } U q ",
"0.M.M.0.Z.m.0.6.m.v.m.m.M.m.v.v.v.b.v.v.L.v.M.L.V.N.N.N.N.B.B.V.N.V.b.L.V.V.V.V.j.j.j.j.j.| | B B c B c 0 c q 5 q q q q q   q . ",
"0.6.6.6.6.2.6.v.2.6.6.l.x.v.v.x.v.x.b.x.b.x.x.x.b.x.b.v.x.b.b.l.l.g.h.k.l.l.k.b.V.j.h.j.j.j.B h.h.h h h.h.h 2 u } u q u 5 & q & ",
"C 1.1.1.1.1.3.3.3.3.3.3.3.x.3.x.x.3.x.x.x.x.x.x.l.l.x.x.x.k.x.x.l.k.k.g.g.g.h.g.g.g.g.g.V V h.h.g.h g.2 h g.h a h h u h u u 2 , ",
"M M 1.1.1.1.M 1.3.3.3.3.3.3.3.3.z.3.c.2.2.x.l.l.l.l.l.l.x.k.k.k.g.k.k.k.g.g.g.g.g.g.g.l z z z z h g.g.a 2 h a 2 2 2 2 2 , , 2 , ",
"M N k M p 1.5.3.3.3.3.3.3.3.x.3.6.2.v.6.2.v.<.k.2.z.2.z.k.l.c.z.Z Z h.h.g.h.V g.V g.B V z V V l h a g.a a g.: 2 h h 2 2 2 2 , 2 ",
"f N f 1.f 1.k M 1.1.1.3.3.2.3.3.2.1.2.2.6.c.<.k.c.z.2.<.k.z.Z x h.h.A g.V g.V z l V V l g l B B h a 2 h h a : u 2 2 , 2 u 2 , , ",
"f N N f y N N k N 1.1.N 1.1.1.1.<.<.<.<.<.<.k.<.2.2.Z 2.Z Z Z C V A V C V V V l l g g g g h h g h d i h h 2 2 2 2 , 2 , 2 2 , , ",
"y e p f k k N 1.k k N 1.k 1.1.k x <.x x <.<.<.<.Z Z Z C A C V V B V V z V V z g g g g a a a a a d i u i 2 2 2 2 , 2 2 , , , , , ",
"w < p p p p p k p k k k k 1.k k x x j x 4 <.k k z M j j V j j j g g g k s l g s 4 4 4 3 i 2 2 2 i : : : : : : : 2 , , , , # , # ",
"< < < < e p p p p p p k k k k k k k k j k k 4 <.g j j j f V f a s s 4 s s s 4 4 4 3 3 3 2 2 2 : : > > > : , % % , , , , # # # # ",
"1 1 1 e e 1 p p p p p p p k p k p k k j f k j f p g f f f f f f a i i 4 4 3 3 3 2 2 2 : > 2 > > > > - - , , % # % # $ $ # $ $ $ ",
"1 1 1 1 e 1 1 e 1 < e p p p p p f f f f f f f a d f f f d p d d i 3 i u i 3 i 2 2 : : : > , > ; ; ; ; - , , , # # # $ $ $ $ $ $ ",
"= = 6 1 6 e 1 1 1 e e e e e e e f p e f f e d w w i p w < 3 i w w 7 i e w 7 7 : 7 7 7 ; ; ; ; ; ; ; , * , , , $ # # & & & & $ $ ",
"= = = 6 1 6 6 6 6 6 1 r e e e e e e e e w e w < 1 w i < : < < : 7 w 8 d 7 7 7 7 ; 7 8 7 5 ; 5 6 , 5 , * & , $ $ $ $ & & & & & & "
};
