/* XPM */
static char *rsz_images1717089936[] = {
/* columns rows colors chars-per-pixel */
"64 64 235 2 ",
"   c #191A05",
".  c #211F10",
"X  c #1E210B",
"o  c #182D07",
"O  c #1C3100",
"+  c #23240C",
"@  c #26290D",
"#  c #27270B",
"$  c #233402",
"%  c #233B01",
"&  c #2A3B04",
"*  c #2A3A0B",
"=  c #28360D",
"-  c #242513",
";  c #272914",
":  c #2A2B14",
">  c #2B2D1A",
",  c #2D311A",
"<  c #2B3616",
"1  c #32341E",
"2  c #343619",
"3  c #2F3120",
"4  c #333522",
"5  c #363922",
"6  c #3B3C25",
"7  c #3C3D2A",
"8  c #383725",
"9  c #2E2F21",
"0  c #403F2C",
"q  c #413F30",
"w  c #2C4403",
"e  c #2D4A01",
"r  c #2E400C",
"t  c #284502",
"y  c #314B05",
"u  c #32430E",
"i  c #334B0B",
"p  c #35490B",
"a  c #2F5200",
"s  c #345304",
"d  c #36530B",
"f  c #3D5D0C",
"g  c #385806",
"h  c #324513",
"j  c #394B16",
"k  c #3B4D1B",
"l  c #364716",
"z  c #3C5314",
"x  c #3E5C11",
"c  c #3E541C",
"v  c #3F6109",
"b  c #3C4324",
"n  c #3E412B",
"m  c #3A4724",
"M  c #3F4131",
"N  c #3F5121",
"B  c #425E13",
"V  c #435B1A",
"C  c #44581F",
"Z  c #405515",
"A  c #42650C",
"S  c #466A0A",
"D  c #4E7306",
"F  c #52770C",
"G  c #436413",
"H  c #4A6616",
"J  c #466A14",
"K  c #4A6C15",
"L  c #456419",
"P  c #4C6B1B",
"I  c #49661A",
"U  c #4D7214",
"Y  c #4D721A",
"T  c #517415",
"R  c #557A11",
"E  c #53741D",
"W  c #557B1D",
"Q  c #5B7D1D",
"!  c #587B16",
"~  c #424226",
"^  c #42442D",
"/  c #44492D",
"(  c #4A4A2E",
")  c #464B26",
"_  c #44542C",
"`  c #4A5B2B",
"'  c #465526",
"]  c #444631",
"[  c #464933",
"{  c #4A4C35",
"}  c #474A39",
"|  c #4C4E3A",
" . c #494633",
".. c #514F37",
"X. c #465232",
"o. c #4D5234",
"O. c #4D5B34",
"+. c #4E513B",
"@. c #4E5A3B",
"#. c #475138",
"$. c #525336",
"%. c #52543D",
"&. c #58563B",
"*. c #555A3E",
"=. c #565A3A",
"-. c #515E29",
";. c #4D6B22",
":. c #4C6426",
">. c #516D23",
",. c #53692D",
"<. c #537423",
"1. c #557924",
"2. c #597C23",
"3. c #5B7B2B",
"4. c #577528",
"5. c #526432",
"6. c #566C34",
"7. c #53633C",
"8. c #5B6D3B",
"9. c #586738",
"0. c #5E7A33",
"q. c #5E713C",
"w. c #5C7433",
"e. c #4F7021",
"r. c #62733D",
"t. c #627D38",
"y. c #607B2A",
"u. c #545642",
"i. c #565943",
"p. c #5A5C45",
"a. c #5C5E4A",
"s. c #575848",
"d. c #5D5F51",
"f. c #4E5042",
"g. c #615E49",
"h. c #5D6345",
"j. c #5E614B",
"k. c #5E6C4A",
"l. c #5B6A43",
"z. c #5E6151",
"x. c #626346",
"c. c #62634C",
"v. c #68654B",
"b. c #656A4D",
"n. c #6A6A4D",
"m. c #6B7B4E",
"M. c #667648",
"N. c #646552",
"B. c #666953",
"V. c #6A6C55",
"C. c #666A59",
"Z. c #6C6D59",
"A. c #686755",
"S. c #667253",
"D. c #6D7254",
"F. c #6E7B54",
"G. c #6E715B",
"H. c #6E7A5B",
"J. c #67715A",
"K. c #717256",
"L. c #727A55",
"P. c #72745D",
"I. c #75795D",
"U. c #7A7B5E",
"Y. c #78765D",
"T. c #6F7561",
"R. c #747661",
"E. c #767963",
"W. c #7A7C64",
"Q. c #7C7E69",
"!. c #777569",
"~. c #6F6E61",
"^. c #817E68",
"/. c #5E831B",
"(. c #5F8516",
"). c #60851D",
"_. c #5E8122",
"`. c #5E842B",
"'. c #628524",
"]. c #62842C",
"[. c #668A2A",
"{. c #688A28",
"}. c #648433",
"|. c #6B8B35",
" X c #688936",
".X c #73913C",
"XX c #6D9535",
"oX c #6E8943",
"OX c #6B8247",
"+X c #70804F",
"@X c #758255",
"#X c #75815E",
"$X c #7A855B",
"%X c #7D8165",
"&X c #7E816A",
"*X c #788464",
"=X c #7D8570",
"-X c #84835D",
";X c #828366",
":X c #848A64",
">X c #8C8B65",
",X c #83856C",
"<X c #88866B",
"1X c #86896C",
"2X c #8B8C6D",
"3X c #918E6B",
"4X c #908C66",
"5X c #8C936C",
"6X c #8E9E6D",
"7X c #92926D",
"8X c #90996E",
"9X c #848571",
"0X c #868972",
"qX c #8B8D73",
"wX c #8C8D79",
"eX c #888772",
"rX c #908F73",
"tX c #8D9274",
"yX c #8F917A",
"uX c #879073",
"iX c #929373",
"pX c #929B75",
"aX c #989875",
"sX c #93947B",
"dX c #95997B",
"fX c #9A9B7C",
"gX c #98967F",
"hX c #99A077",
"jX c #A0A07C",
"kX c #9C9D82",
"lX c #979782",
"zX c #9EA08A",
"xX c #A1A185",
"cX c #A5A68B",
"vX c #AEAE92",
/* pixels */
"}.e.E E _.'.'.{././.{./.U A 2.`.Y Y `.1.x d e.4.4.}.0.4. X].[.Y P L }.`.`.XX/.W ].1.<.Y e.4.H P {.'.'.{.).).'.).).'.)./.'./.t v ",
"3.x B A A 3.T T S _.W E 1.P x J P G G L e t e i t x ;.;.E K Y `.d <.e.v v J J v J 1.G L x d >.P H E W A A H U K /.Q '.'./.U _.[.",
"z w $ x a G <.I A f E >.x d d d x e y i t % i z t z c x Z B y e y t i I f x I s w t w & % w y & % g g d B P G s s e.y.K J f U J ",
"m h * 6.r t z x i t z Z i i c j z % j r C j @X6X6.h % r y V z w OXk j p $ w i z C w c j h k l u j z & $ y i w d i d V y i z y L ",
"l o 7.+Xl N t k :.c % * * M.M.OX` ' m.@X5XM.:XiXsX:X6X5X` $ * $X8Xn.* $ ' r.,.r.L.@XL.@X9.) n.Y.-X@Xl.5.5.` -.L.8.$ h l h * j k ",
"J.d.J.J.m *X*XkXm.m O.O.k.#XlX=XuX:X:X>X>XU.%XqX1XpXsXdX>X=.' 5X;Xg.# x.5XhX8X-X2X2XiXqXg.) n.3X$X*X#X#X#XF.L.*XL.@._ l O.= o.= ",
"z.!.z.z.7 z.uX=XJ.< =X6XuXS.=X*XuX:XW.0X1X,X,XgX<XsX,X;XtX:X,XtXV.{ { fX;XL.2X2XwX^.rX^.g.&.&.^.:XE.I.Y.E.E.Y.P.H.E.b.b h./ F.h.",
"C.~.!.z.- f.E.uX=XC.=X=X#X=X=X=X0X&X,X;XqXQ.^.qXqX;X<XeX:X&XdXQ.p.8 u.lX<XwX2X<X^.wX^.Y.g.0 v.^.Q.P.K.E.E.P.E.E.Z.j.&XV.B.+.P.&X",
"Z.Z.g.{ 8 0 N.qXuX0XqXqXE.qX1XqX&XyX&X9XyXG.$.rX2XqX,X;X0X1X0Xj.0  .0 lXgX<XqXwX&XyX,XN.g. .&.^.Y.Y.^.Y.~.Y.A.W.i.u.P.R.n. .K.K.",
"0 8 8 , ; # 0 &.V.S.V.&.p.b.V.B.E.P.J.D.c./ + o.p.p.$./ o.+.p.n  .8    .*.B.n.x.| A.A. . .: :  .( ~ ..&.&.%...{ a. . .&.8 # ~ ..",
"n.n.n.n.n.v.n.K.K.x.*.2 p.n.V.=.b X , o.*.o.2 / ( o.o.o.h.h.V.*.- { i.A.*.9.=.) X %.A.i.x.&.&.v.v.n.K.&.2   ..B.{ 8 2 E.K.n.K.L.",
"jXjXaXfXaXaXiXgXiXW.K.~ ;X2X2XK.p.1 p.qXdXxXfXpX-X:XiXtXdXdXsXW.^ W.cXfXtX5XU.b.1 &XkXiXkXjXjXjXjXaXfX4X&.0 eXgX,Xc...rXsXsX2X<X",
"aX7X7X7XiXqX2X2X<XU.B.( W.;XU.U.g.0 ^.cX2XiXaXiX3X>XiX5XqX2X,XI...Y.dX<X:XtX-XD.b 2XcX<XaXaX7X7X4X>X2X;Xv.{ qXQ.,XB.#.E.,X2X2X1X",
"4X7X7X7X3X2X2XqXqXW.A.%.^.<XW.%XV.^ rXcXrX7X7X7X>X-X2X2X2X2X;XY.( U.fX7X2X5XU.D.b 1XxX;X3XaX7X3X3XiX3XU.i.[ qX;XP.B.j.&X,XQ.;X*X",
"4X3X7X7X3XqXrXeXwXE.N.| E.Q.E.P.P.^ <XkX3XiX3X3X4X-X7X3X3X<XE.Z...^.3X>X2X5XL.n.~ :XkX;X3X7X4X3X:X2X<XU.j.h.=X~.C.N.s.E.E.E.:X0X",
">X2X3X2X<X<X<X^.eXR.Z.{ G.V.E.P.Z.^ rXfXrX3X3X7X3X-XiX>X<X;XY.K.( ^.rXqX2X>XU.K.~ ;XfX<XrX3X3X7X2XtX1XE.p.a.R.C.R.B.| R.R.H.Z.H.",
"5X;X2XtX1X1X;X,XK.E.i.{ c.Z.N.P.P.7 Q.<X;X<XqXU.2XW.iX<XQ.K.K.Z.[ E.Q.W.;XE.G.V.5 V.yX,X,X:X%XqX,XiXE.E.i.| c.Z.R.d.| R.~.N.Z.Z.",
";XL.%XU.U.%XE.K.B.j.| [ a.Z.B.Z.B.> A.R.P.R.L.Y.Y.D.Y.W.G.R.Z.V.n N.Z.G.R.Z.B.Z.4 i.I.G.I.E.E.&XE.I.V.B.^ { Z.c.V.N.7 A.Z.Z.C.N.",
"D.b.D.b.B.K.V.h.u.[ ^ 8 %.Z.Z.A.Z.4 V.I.R.I.c.Y.V.b.D.K.V.E.V.B.n i.P.G.G.Z.A.I.6 +.G.V.P.G.V.V.K.V.K.N.^ ^ P.P.Z.B.6 Z.R.R.N.Z.",
"V.n.V.V.V.K.B.c.^ ^ n ; n a.a.i./ + | p.c.p.o.c.B.b.B.B.B.Z.B.c.+ 5 c.p.p.j.c.A.: , u.p.c.i.p.i.p.g.p.| n + 8 i.i.[ ; p.a.u.u.p.",
"{ [ { | o.{ ^ ^ ^ { ] > M 7 4 | 4 > 4 / { 7 2 b ( / { n +.^ { ^ + @ [ ^ n < , ^ 5 , ^ ] | ] 7 8 7 ^ [ ] %.8 b { { 6 5 %.[ 6 p.{ ",
"K.K.E.R.I.V.c.Z.R.E.R.Z.Q.| f.9XsXsX0XtXwX;X1XW.E.K.E.V.qXE.9X&XwXW.qX2X,X*.p.;X0XP.G.R.Q.Z.| 7 i.c.&XqX0X0XwXW.qXW.0X,Xc.V.xX%X",
"Q.Q.;XE.Q.E.P.Q.Q.Q.!.Q.Q.} C.zX0XeX&X0X0X1XsXqX1X%XE.W.kXqXlXyXtX1X2X2XsXh.K.lXqX,XE.0XwX9X+.7 j.R.wXwXQ.,X&XR.qXqXqX2Xb.S.kX;X",
"B.P.P.N.Z.R.P.Q.Q.Q.!.R.Z.7 !.kX0X,X<X0X,X1X,X1X,XU.b.K.yX0XqX0X<XtX5X&XuXb.Y.iX,XwXE.9X9XQ.| { c.R.P.P.E.,XR.0X,X1X%XiXV.V.2X,X",
"A.N.V.Z.Z.Z.Z.E.R.B.P.N.G.1 P.lX9X9X,X,XuX,X:X0XY.U.p.=.%XW.Q.%XW.L.;X>XU.$.b.tXQ.W.K.I.Q.V. .| V.V.V.c.K.W.&X,X,X1X0X1Xb.n.iX1X",
"K.Z.G.G.Z.P.Z.P.Z.{ a.R.i.4 i.,XR.&XW.W.%XU.K.K.S.K.p.*.Q.Y.Y.b.K.D.n.n.b.( h.W.Y.V.A.B.E.a.0 %.G.B.B.A.Z.Z.V.E.*XW.K.K.h.p.W.D.",
"| { { [  .{ ^ ^ 7 1 7 | 4 1 4 [ { i.%.{ ( { $.=.$.{ < @ ~ { p.{ $.$.) ( ( # # ( ( ( 0 @ ^ 2 : 8 | { | { [ ^ 6 ~ 6 ^ ~ ^ 1 < ^ ( ",
"u.i.i.{ { %.| { 1 ^ 1 ; %.+.^ 6 { / < 2 ~ { =.*.x.b.B.n.V.b.h.@ : D.L.x.n.v.V.K.K.K.x.@ *.g.v.n.i.i.| ;   ^ [ { %.%./ %.c.p.p.+.",
";X9X9XR.P.W.E.Q.V.V.%.p.xX0X,X&X<XR.*.W.dXfXsXtXdXpXyXqX1X1X,X{ $.vXvXrX2XiXrX;XiX2XK.0 ;XrXrXqXqXyX&X%.^ Q.0X9X,XQ.Z.Q.wX9XR.Z.",
",X,XqXQ.Y.^.Q.;X%XV.u.E.sX,XqX0XI.B.{ W.tX1X,X<X%X;X;X;X1X0XqX+.p.fXrXqXqX;X;X2X2X^.n.{ fXfX<X<X%XW.&Xc.| E.P.G.N.R.Q.Q.P.N.N.V.",
"E.E.;XE.E.Q.I.E.W.K.c.%X&X&XW.K.K.P.*.1X2X%X1XqX1X:X;X;X,X,X,X{ $.xXrX^.;XqXrX<X<XW.x...dXiXU.;X2XR.I.a.[ G.B.G.Z.A.Z.Z.~.~.A.c.",
"E.E.Q.Q.%X&XR.I.K.G.b.K.qX,XB.K.A.V.{ ;XqXqX1X$XW.%X%X;X:X,X&X{ ..sXeXrX;X^.;X,X<X<Xx./ 2XrXW.<XE.n.B.i.7 K.N.Z.G.A.Z.Z.A.Z.C.N.",
"Q.E.W.W.E.E.Q.E.R.Z.a.N.R.A.N.E.Z.G.{ &X,X,X,X<X;X,X1X,X&X&XZ.^  .I.P.P.E.R.W.I.Q.B.%.[ Y.%XY.B.V.V.+.^ ^ Z.H.A.Z.A.R.Z.Z.Z.N.a.",
"%XP.H.E.E.E.E.E.Z.R.i.%.A.R.Z.d.Z.c.^ E.0X,X%X&X%X,X&XP.G.E.V.[ ^ !.I.Z.E.V.A.V.j.c.{ 7 A.P.A.R.V.j.| ] 7 i.N.Z.B.N.j.i.N.z.s.a.",
"H.c.b.G.H.J.E.*XQ.P.| [ i.N.Z.Z.Z.a.7 A.Q.I.K.L.D.P.E.K.P.A.u.8 4 I.Z.A.R.N.a.V.B.{ [ 6 6 [ u.n ^ n 5 6 : 1 1 ; : 8 8 7 f.7   > ",
"/ [ u.h.%.} ] n 7 6 ; > 7 ^ u.a.j.| @ ^ c.j.h.%.c.h.c.c.V.j.^ 4 1 c.p.%.%.^ 0 { 7 5 1 + j.c.K.Z.Z.V.E.Q.A.Z.a.> n B.G.P.9XC.4 ] ",
"^ n n 5 5 ] i.u.  | u.u.i.i.u.; 7 +.7 ^ ^ 2 p.j.%.{ 7 ; [ +.] ] 1 ^ { +.{ %.a.a.G.P.A.[ kXeXqXqX0X,XwXwX9X9XE.+.| ,XQ.R.Q.A.4 | ",
"9X9X=X&X*X&XQ.B.c.sXlX0XeX9XZ.> i.sXwXQ.j.n qXlX0X1XK.6 N.eX9X,X9X&X9X9XE.&XeX;X&XE.&X%.lXE.9XE.,XE.&XQ.R.A.A.i.u.9XQ.R.~.Z.] d.",
"&X&X&XE.E.&XE.B.R.0XE.Q.Q.Q.I.0 N.kX&XQ.E.{ yX,X&X,XP.6 B.9X&XQ.Q.E.W.Q.E.Q.9XQ.R.eXR.{ wXQ.E.9X&XE.Q.E.R.B.B.a.i.E.P.R.Z.Z.f.A.",
"E.E.*XE.G.V.G.B.R.wXQ.Q.Q.R.P.7 u.yXE.,XE.n sX,XE.Y.Z.] R.;XR.,XQ.W.W.Q.Q.Q.E.Q.E.G.N.| P.Q.,XE.E.R.P.c.G.G.Z.u.Z.R.A.~.A.Z.f.A.",
"E.T.H.N.B.~.B.G.a.V.P.E.V.I.c.7 u.A.Q.A.c.8 P.&XZ.P.u.4 c.Q.E.K.Z.E.Q.R.E.E.Z.P.P.A.A.+.| P.E.B.Z.K.V.Z.P.B.E.u.u.Z.Z.V.R.Z.} A.",
"#.u.z.j.p.u.{ { 1 %.c.a.N.i.[ 8 4 h.N.%.6 + +.j.g.i.7 + [ j.B.c.B.c.p.i.*.i.%.%.%.| +.5 - 6 | i.a.%.j.p.u.u.{ , 7 i.a.p.z.i.> 7 ",
"7 M +.] n > 6 n 8 { / 7 N.i.{ { ( +.7 [ 5 X ; { [ ^ 4 : 7 { %.[ | ^ 5 %.u.a.%.i.a.%.%.{ ] [ %.a.| : u.a.a.N.u.+.[ { 7 1 q u.] | ",
"Q.W.,XE.J.i.Q.Q.Q.E.i.u.9X,XQ.W.,XE.*.K.G.i.] G.E.E.Q.W.;X,X;XR.R.c.i.,X^.,XQ.Q.eXE.R.&X9X,X&X^.Q.{ R.9X9X9X&X9X,X!.Z.a.~.wX9X!.",
"!.G.R.G.T.a.Q.E.R.E.c.P.Q.;XE.,XW.1XR.I.I.c.u.,XQ.Q.Q.,XQ.,X,XW.eXP.a.,XE.E.R.E.Q.E.I.R.E.E.Q.Q.&X{ j.E.R.Z.G.Z.Z.A.Z.a.Z.Q.E.Z.",
"R.C.C.Z.J.N.E.Q.Z.P.A.Q.Q.&XQ.;XW.W.Q.R.R.i.%.wXQ.Q.!.W.E.,X<XQ.E.V.i.W.Q.Q.E.E.E.&XE.Y.E.E.Q.E.G.^ +.Z.G.N.P.Z.V.Z.R.u.d.R.R.!.",
"J.B.C.N.B.N.N.E.P.Z.c.V.E.W.&XW.;XK.K.Z.N.u.7 !.Z.R.Z.I.K.Q.I.K.Z.V.i.G.Q.I.R.Z.P.Q.c.N.R.E.E.Z.I.{ %.N.P.B.P.Z.A.G.P.| s.z.a.A.",
"C.Z.T.R.G.B.u.J.K.Z.a.a.E.I.Q.W.Q.E.P.p.| | 5 a.Z.P.N.B.N.R.K.K.V.A.%.i.Z.A.P.A.Z.Z.+.[ a.A.P.K.G.[ { i.Z.V.Z.Z.G.V.a.] p.~.Z.!.",
"u.f.f.+.u.[ > ] +.| : 6 { ] ] M [ n 4 4 4 > - - 4 - } 0 7  .0 8 7 7 ; 4 7 0 { ^  .8 7 0 0 q %.i.+.> 6 } ] n z.f.i.} 8 6 n f.#.+.",
"} ] 7 7 a.c.p.B.j.G.Q.Z.c.> | C.s.s.u.s.d.z.j.N.u. .A.g.c.V.A.A.j.N.u.*.a.c.i.n , 0 | u.u.p.%.^  .] [ n X , j.u.u.j.B.|   M u.] ",
"!.E.a.i.wXuXqX0X0X&X&XQ.Q.[ B.9X&X0X%XQ.&X,X&X,XD.c.<X^.W.1X<X,XqXyX,X=X,X;XB./ p.Y.I.Y.W.Y.%XW.W.W.E.Z.M i.Q.!.*X!.Q.J.M E.9XG.",
"G.R.p.%.&XR.W.I.E.I.B.H.j.| N.&X%X*XE.I.W.W.E.*Xb.h.,XW.Y.%X%XQ.%XE.U.W.E.c.#.b x.%XK.Y.U.V.Y.&X&X!.E.E.f.i.~.H.C.T.C.z.#.J.V.G.",
"E.~.u.#.&XK.E.E.V.P.V.Z.u.n j.E.T.H.H.G.I.J.H.E.N.i.&XE.R.&X&X=X&X*X!.T.z.i.[ } j.9XH.G.Q.R.R.R.T.R.!.z.} +.~.C.C.~.Z.C.i.~.Z.Z.",
"J.j.| } H.G.G.B.G.G.G.a.i.] J.T.E.E.R.H.H.G.V.P.B.i.Q.P.J.&X&X,X&X=X*Xz.f.#.[ #.] !.R.C.Z.R.Q.!.9X~.~.s.+.} C.T.E.N.Z.T.p.N.C.A.",
"| 7 7 4 f.g.j.p.i.h.d.} 7 ; s.a.u.h.h.p.p.p.p.j.#.n c.a.a.B.A.B.J.z.s.M M f.] ] - | z.a.d.d.d.z.s.M M } 7 3 } u.u.} f.M 9 - 4 ] ",
"s.f.f.9 9 u.a.d.a.s.] ] 9 - 9 ; ] *.+.( ^ / ^ n 1 + | +.u.c.j.p.f.b 3 4 n ] 6 7 ; > 9 7 f. .4 8 - M s.z.M M u.z.d.N.f.9 s.z.d.s.",
"!.~.!.G.q !.wXeX9X!.Q.d.| d.s.q rXfXW.U.;X$X;Xh.^ ;X;XI.U.%X%XK.k.1 { o.W.B.c.v.N.u.c.V.Y.A.%.+.n s.T.J.V.E.H.C.T.J.J.n z.=X=XJ.",
"~.z.A.Z.} Z.!.W.^.R.Z.N.A.C.s.s.tXU.;XW.;X^.D.%.=.,XK.%X*XU.V.b.S.5 c.P.h.B.E.Z.Z.Z.P.A.A.P.N.a.3 l.J.T.J.B.S.k.l.b.H.M k.J.T.*X",
"N.R.V.p. .K.,XW.R.V.A.V.Z.V.g.| yX~.9XE.^.E.P.{ i.0XE.I.G.j.H.~.j.] C.J.B.J.N.Z.N.N.C.N.Z.~.d.u.< @.k.k.k.M.M.l.M.M.l.l l.#XS.k.",
"x.D.O.$._ *.D.m.b._ l.L.b.b.v...Z.E.Q.G.Z.B.Z.n ^ V.z.E.k.[ l.C.@.5 T.B.C.G.G.C.~.C.C.T.Z.d.f.} m N +X5.,.M.' :.M.OX8.h 5.M.l.7.",
"5.M.' p k 6.r.5.6.5.6.:.C 8.8.* [ I.V.S.k.l.+.~ _ #Xl.O.N l.l._ = < *.m o.O.M l.p.i.@.@.u.M f.N r d OXq.w.0.V ;.w.oXM.d V 6.6.6.",
":.oX,.% t }.oX;.0.oX:.t z 0.,.w -.-.N N ` q.r Z 6.+X6.O i :.OXz 5.z q.OXc 6.l.c ` 5.N k _ 5.` h o ;.oX}.`.}.3.G  X X`.v e.}.0.;.",
"3.1.G a v Y 1.3.|.1.s J  X`.4.}. X>.H P y..XH E ].W |.U XXS _._.[.`.].XX2.}.].A }.|.4.Y `.`.e.e a  X X1.Y 1./.a Y `._.W Y `.`.;.",
"Y v U J Y Y A Y 1.U v _.`.Y 1.Y H Q {.{.'.'.).R S D R /.D (.D (./././.F F D '.(.D ! T W _./._.Y 1.Y v v U /.v S a g v Y J v _.x "
};
