/* XPM */
static char *rsz_1ads__z_tasar__m1717179400[] = {
/* columns rows colors chars-per-pixel */
"64 64 95 2 ",
"   c #412A1A",
".  c #4A2F1C",
"X  c #4C311C",
"o  c #51351D",
"O  c #453225",
"+  c #4E3422",
"@  c #513622",
"#  c #553A25",
"$  c #583D27",
"%  c #563B29",
"&  c #593E2A",
"*  c #5C412D",
"=  c #5E4330",
"-  c #5F4838",
";  c #60442E",
":  c #634631",
">  c #664A33",
",  c #6A4D36",
"<  c #664B3A",
"1  c #6B4E39",
"2  c #6B5035",
"3  c #6E523B",
"4  c #72553D",
"5  c #79573E",
"6  c #76593E",
"7  c #79593F",
"8  c #634F42",
"9  c #6E5341",
"0  c #6F5A47",
"q  c #67564C",
"w  c #66584F",
"e  c #6D5A4B",
"r  c #735641",
"t  c #755A43",
"y  c #7A5D45",
"u  c #745C4A",
"i  c #7B5E49",
"p  c #715F50",
"a  c #7E6146",
"s  c #7D624B",
"d  c #766152",
"f  c #7B6452",
"g  c #7D6855",
"h  c #7A6658",
"j  c #76685F",
"k  c #7D695A",
"l  c #7D6C62",
"z  c #7E7065",
"x  c #815E44",
"c  c #816146",
"v  c #82654D",
"b  c #89674B",
"n  c #85694E",
"m  c #8A6A4E",
"M  c #836651",
"N  c #856A53",
"B  c #8A6C55",
"V  c #856C5A",
"C  c #8A6E59",
"Z  c #916F53",
"A  c #8D7156",
"S  c #86715E",
"D  c #8D715A",
"F  c #917156",
"G  c #92745C",
"H  c #99755B",
"J  c #96795E",
"K  c #9A7A5E",
"L  c #816F61",
"P  c #847265",
"I  c #8C7664",
"U  c #857569",
"Y  c #887668",
"T  c #86796D",
"R  c #8A796A",
"E  c #927661",
"W  c #967A63",
"Q  c #9A7C64",
"!  c #9B7E69",
"~  c #907E70",
"^  c #A07D63",
"/  c #9D8066",
"(  c #9E816A",
")  c #A28265",
"_  c #A2846B",
"`  c #A6896E",
"'  c #A28670",
"]  c #A48A72",
"[  c #A98B74",
"{  c #B0927A",
"}  c #FDEEE3",
"|  c #FFF3E6",
" . c #FFF5EA",
".. c #FFF9ED",
"X. c #FFFAF1",
/* pixels */
"X 1 u t t u 3 i v 4 r y , y r r t t s 4 1 M r i t r t t t s v 4 r t y i i r 3 4 r 3 3 t r i i t r t v s r x x 4 y y r r r r < . ",
"# V V N N E F B C B H W v B C G C D D V N _ G C D C C C V C C v W E D V M s i M M C E ( D D D G S C D D C E ! C M M M E E V u % ",
"+ i t v x u i x 4 4 n B 1 9 t v t s t 3 i W C r s v s t r r t v W N 4 4 i i t r 3 t N ! s t r i r 9 r r t C F i N v x v V x 9 + ",
"= M t V V i v N t t F W r x v C C N t t V ( W i t s s s s t i C ! V r t N V s t M u N ! V s s v s i i y x W Q N W G N M V V M % ",
"% i M u M E N C M r C H x v M V A C t s C ! E i 3 i v N V i t s G C M M n i t s C y M ( V s v V S C N t i F W c x C E M V M u + ",
"& u i v M E v D B r C ! x M C M V N i s C ! C i s M f v v i i v W C s s N s i N s r M ( n i v B E I D t 6 D W c 9 M E V V x x % ",
"% 9 r i i r 9 M M r C H u x M x s i i i M ( M r V v i t 4 t s s W s 1 3 M v i s t 1 M ! i y s N C D N t y G W s 5 x M x M 9 u % ",
". i u i r 9 i x x 1 C H 9 9 v x t t i r t ( v r N v N s t s V c W N r t M M s v s 3 s Q s i V M C C C s i H G 4 C x M x E M M + ",
"@ 9 u t i y y t y 1 C W 1 3 y 9 3 i > , t ( M r M s y t M s 3 M ! N t t r t i i i 3 s W N t v s s s i i y F Q 6 V C x M C x 9 = ",
"@ 9 < : < 1 < : : : x C 9 5 1 1 : 4 : = > C y 4 3 1 1 , > > > r S i r t t 3 3 3 3 3 s D i < 3 , 3 3 , , 6 i v 4 5 9 : 9 x < < % ",
"& M I E E D E E G D W Q V H B F N G C V V ( D I W C E I D W W D D s i B C N M M v s s E E E W D D E A A G G K H M F B H V x u @ ",
"% M W Q Q E W ! Q G W ^ M F C C V D F E D _ E D E D ! W E W E W [ E C W E C D G D B V E W E W E E / W W K K _ Q ^ ! ! { ! G V % ",
"& u r r x x u r x 1 C ^ x x M 9 t t i s N W V s i s M s v i 3 N W f t i s i i s u v V W C 4 t M f s n B y Z ^ v v C B C x u u . ",
"= u M x M M M v M < H ! x M V M C v s s M W D i D C s s I N i G W N i M C C D C y y V ! B r v D B s B B r F [ y H H H D M M M & ",
"+ u M V G C C V C x C ! M M M M G M M i s G D t D v i i C D s N Q B s M C D C v C s V Q C i C C V B V n t Z ^ x G ^ H E V M u % ",
"= i i i M M M x M r M E M x 5 M V s N i v E D i r i C V i s s v W V s M C Q E V i i C Q N i D N s n n s y F ! M C Q M M M x x & ",
"% 9 u M x x u x i r x ^ i M M x u L V M t E B i t s s s N N t M W C r i i G C s V s M Q s s C N 6 a f n y B Q c n B M x M v u & ",
"= u r x u r 9 u x r M ! i M v x v M i i r E M i n g N s N N i N W M 3 i y N N B t r s ! s 3 i v 6 0 a 6 4 D Q 6 c v t 3 9 t u < ",
"@ 9 1 r u M x p 9 < v ^ t x M M B B x x t E N t s s s s f i 4 v ( s 3 i t i s V t 3 s ! s 3 r t 0 a 4 2 6 D J 6 B B m M i i r @ ",
"& r r r u x u x 3 9 M ^ 9 r y x u M i 9 r Q B < a r u s N i 3 s ' s 3 t t t r y i t y W V i i t a d a a a m G n i v x i i x u & ",
"@ r 8 9 9 r < 9 3 1 y W 1 1 3 , , 1 1 < 9 C M 9 3 2 2 4 0 2 > 6 S r , 1 3 1 1 , , > 1 B N C E D g C D A B G / J E H E C V M u @ ",
"% M v M V D M H V i M ' N D Z n C M N M B ! Q E / A I G D / g A E B B N N n C C V C N D i t t y a s s 6 6 B J 7 y x M N N M r + ",
"@ M v v C C M C D i N ^ x B B B F B N x x C C v g s B B g n a a C s M v C V D C i V M D i r i n S V n s a D / a E H D C i i r % ",
". v v M C C M C x u C ^ y M W _ B E E y i W E r D G ( / / / / a E y r u C C B s i v s D v r y V G g s n 6 v / a G ! ^ Q I M u & ",
". C i M N s N N N t n ( c F E B C D D c g / s a D / / S ( / d g D i s M C W D C s i s D v i i V N i v B x N Q x C H H ! E M 9 = ",
"@ C 9 x N s N N D s v Q y B E F N C G M s / A a / / g n ( / g a B i M C D W D D s s v D s t t s s s B B t x F r C G C G E M 9 % ",
". V 3 r s t s s B y v Q 6 n J / C D D s a S g 6 J / A G / / g a V t i i v C M s 1 r v D s t r i u a M s 4 x D t x M v M B M 9 & ",
"X C r r s 4 3 t 4 3 i J 4 y b J / W A t a / A 2 V G / / / / a a N 4 1 4 t s i 3 4 u M D s t 3 t s s x y r N H x r i y v u 9 < % ",
"X x 1 3 i t 3 2 6 3 y G 2 6 6 i v a 6 2 6 A a 2 6 a a a g a 6 6 s 3 1 3 u i s r r 4 t N s s t s 0 0 4 t x v H v M M B M v u 9 % ",
"$ C M C G D D A A v v W c b v c n n A n A / / n G A n n / / a g E D C G G D E C N M V Q D D D W D W J G M M F M H F C C C C x % ",
"X s N D n n N N G D B Q n G F F A B G D S A n A A A g A a a a / W D v C C N D M C s f W C s t s 0 t a a x L ^ F M x M V M M x + ",
"$ s v C s N N a a N A J 4 c n A G B B n A / g a a a g A a 6 a / _ D y v C B W V v i s W D s t s A S a 4 x C H x M M M G M M p + ",
"% y N G B E Q B G H B W 4 H H W A ` G B N N N s W W W ! Q s t B W Q 6 G ) ) W ) E x v ^ N v v v V D v r 7 C W c G B N G G V 9 @ ",
"% M M C B Z B N G H m G y J F v n / m s N N n a D C s s N t t v Q J 4 J / G N H W x M ! M i i x 9 r r 1 4 A ) v C b x M M i 0 & ",
"o N x V B c i c W Q D H 5 H F n s / B a N N a t A A N N D N i s K G 7 Q K n v K ! x x H v x y v 4 t x i 6 B Q y B C N v v i 0 % ",
"% i u B B v x v B C B F , B F H g / n 7 N N 6 3 6 N A N V s 4 i Q A 6 G J B B / H r u H M t t x i i i y 4 b Q a c N x y i i r + ",
"* y i B N N C i H D B H 4 i m Z A A a 2 n D y 2 3 s n t t 3 3 s Q B 6 v F G A F 4 1 x H v < < x i 4 4 3 , n _ B F E C M V M y + ",
"$ 4 r N t s B 6 C i a D t 4 4 5 6 a 6 2 6 f t 6 3 s t t i t t s v c y a a v a a v 9 1 M v x M C C V N B v G ) B H H F B C V i + ",
"% t 4 i r i i 4 c y B ( F C D F g / / n N W W G D W D W W W D W J F K G A F G G H M x C H ! E ! E W W W G Q / v u x y u i v r @ ",
"$ B i i i v s s i i G / n i n v a a a 6 s J N t n N s s v i i C A 7 4 6 c B n y x M V H M M r x v s t t c G ) J H E C E E C u & ",
"$ V v V N s s N B s D W D y G D n / a 6 a / g g D A N s v s i D F c r s Q [ Q v M N D ^ M x 9 M N s i y r E ` y u B M u x i u % ",
"$ v i N V n v i s r A Q G v F B n g / a a _ g 6 n J I s v C s c G a y B ' ^ E C m x C ! V x M V V V B N t F ^ i x M x u p x i + ",
"$ M s V V M s s t r V ( W v D v n / n a A ` / 2 N N N N D N s C H N b Q ^ C B Q D v N ! M x M V G G F M t Z ^ x M F x x u u r + ",
"% s s f i i i v s 4 s W D t v a a a a 6 a ) g 6 s t i s M s t S D c B ( Q M x Q C x C ! x < x r C M y r 5 B W t M F M x r 9 9 % ",
"% M u s s M M M s 0 r W D a a g n g a 6 a ` g a t v s 3 0 a 6 g C i v F ^ H D Q M t C ! x r 9 9 t t t t x B H x x x x r r r 9 + ",
"$ s 9 t i f i t a 3 4 D B 6 3 y a a 6 2 g ) a 2 3 6 a 4 6 a 3 s F i 2 v W Q C M 1 9 M W x r x r r t 6 4 9 M H C I E C H H ! x % ",
"+ i 3 3 r r 9 3 4 4 3 N a 3 2 2 2 > > > 0 A 6 2 t 3 3 t s 3 2 n B y 2 y M v y r 1 9 x B u r x x r s 6 3 1 x F x M M V V C C q . ",
"X M N V s v V C B D B / D D A A n Z / A n / n / G G D n A D m A G B m B N s x N F H E H v M M V N N n N C F F r 9 x M x x M 9 % ",
"o B B F / G G A F c A / ) c Z A n Z m F / F ) / b A Z / Z m m / / / n g D / ( G Z ^ ) K b v B C D J W s W ) G y m B B m N C x @ ",
"o c v c G W K K F n m ` c 7 Z ) / / a a Z F / / Z ) / / / A a A ) / a / / / / ( c Z ) K b B Q ' / W ( A A Q ^ y Z F D C N M i % ",
"@ 6 n s E ( G W G n c ( 2 4 b ` / / s 6 m / A A 6 m Z / ` a 6 A / 7 / A / ] / I b c K H x B Q W / D ( W s G _ 4 b v v x i u 0 + ",
"# t v N / / N D W n N / y s Q K B / B 6 m G s a a 6 n / ( a 2 n / c / n g z S W A c G G c H ! N f f W D t A / 3 v N N N v M v * ",
"X r 0 n W g N G N s d ( a D W N B A S a f D s a A 6 S / S a a g / a a / s 0 g D J a G A x C V 9 4 s f s a B W 6 u x i v u v r + ",
". s u V E a g N u s i ( 4 A g 6 I g C a s J f f g a / A 6 g / n n 6 a g g h g a B 7 K F r V v 9 a g 0 a s D W s B C L C C V p + ",
". d N g S s u t D G N _ u N a a G a D n s / N N S A ( S 3 A S V / a n a 9 N N y N 7 Q G v H D M s g r s s G / v F H G C C M i + ",
"X s B 3 t N t 3 W D s D s t s s d 2 / D f G N D A y a f f / D m / 2 / g < t 1 r H c ^ F x D v 3 a s a B f F / 7 x v M M v v r . ",
". v V r r M C N W N N Q y F F 1 > 6 B J c s N N C s 3 4 W ( n A / a A A > 6 2 g H 5 Z H x H M r > i x H x F H x x G b H B u r . ",
"@ i v x v r r x Q N v Q t F H i 6 3 t B n C a n n a 2 3 J / n A / a A A 3 0 3 s K x ^ ^ 5 G C i 2 y i Q x Z ^ x F H E ^ E x x # ",
"@ i r i C r < v Q N N Q y C Q B t t N A N N 4 N N n 4 a W ( m A / 6 / / a s s B Q y H H 5 G C 9 v c x ! x F H r M Z M H C 9 < + ",
"@ N i 9 D I u v E t M W y M G N t t J D N N , N s a a f W / g s n 2 g / d d s g F y K W r G N < N i u E t N D 3 B B M G M x r & ",
"  V p < f V 0 r V u f E u M V M d s S f g E 1 t 0 t d g J S g B S 6 g z e e 0 d 0 4 W J 3 t d q f 0 d N t L E r u u d d M u 8 O ",
"O h h p k k p p h u d V i p h V g d f 0 d R p 0 e d h s g g d g g 0 g j p w p p d s I I 0 d h d d d d f e L L t u d d d p p 8 O ",
"q l P U U L U U Y L L P Y Y Y R Y P U P k ( Y Y Y Y Y Y S z z z / z z z ( z T Y Y P S I l Y l z T P T U L U U L L L U L L L j w ",
"X.X.} X. . .X. . . . .} X. .}  .| | ..X.} ....| | | ..| | ..| ..| | X.} X.....| ..| | .. ...} .. .| .... . .}  .X.}  . .X.X.X.X."
};
